<svg width="2013" height="520" viewBox="0 0 2013 520" fill="none" xmlns="http://www.w3.org/2000/svg">
<path d="M339.009 278.625C339.895 279.222 339.895 279.222 340.798 279.831C348.913 285.351 356.506 291.367 363.888 297.835C364.975 298.783 366.069 299.723 367.169 300.656C372.855 305.523 378.165 310.755 383.453 316.046C384.985 317.576 386.524 319.098 388.063 320.62C394.363 326.887 400.111 333.4 405.632 340.376C406.588 341.527 407.548 342.675 408.514 343.818C421.197 359.086 432.115 376.037 441.882 393.305C442.311 394.059 442.739 394.812 443.18 395.588C462.569 429.906 476.939 465.635 488.91 503.084C489.236 504.064 489.562 505.045 489.898 506.055C490.168 506.893 490.438 507.73 490.717 508.594C491.053 509.614 491.053 509.614 491.396 510.655C492.014 513.696 491.876 516.652 491.849 519.747C462.052 519.792 432.255 519.826 402.458 519.847C398.943 519.849 395.428 519.852 391.914 519.855C390.864 519.855 390.864 519.855 389.793 519.856C378.451 519.865 367.108 519.88 355.766 519.898C344.134 519.916 332.503 519.927 320.871 519.931C314.335 519.934 307.799 519.94 301.263 519.954C295.118 519.967 288.972 519.972 282.827 519.969C280.565 519.969 278.304 519.973 276.042 519.981C272.967 519.99 269.891 519.988 266.816 519.983C265.458 519.991 265.458 519.991 264.072 520C257.914 519.971 257.914 519.971 255.731 517.787C255.455 515.349 255.296 513.004 255.214 510.558C255.147 509.044 255.08 507.53 255.012 506.015C254.964 504.819 254.964 504.819 254.915 503.598C251.686 425.628 229.502 344.95 170.493 290.387C150.814 272.973 128.457 261.274 104.85 250.201C105.174 249.554 105.497 248.907 105.83 248.24C110.354 246.815 115.033 245.928 119.669 244.932C120.365 244.781 121.061 244.629 121.777 244.473C196.034 228.408 274.86 235.313 339.009 278.625Z" fill="#1C5471"/>
<path d="M17.837 285.18C18.858 285.247 18.858 285.247 19.8997 285.315C39.9841 286.665 59.2311 290.026 78.3974 296.269C79.0936 296.493 79.7898 296.718 80.5071 296.949C124.535 311.463 155.948 344.752 176.441 385.326C194.862 423.05 202.778 467.028 202.947 508.781C202.954 510.232 202.954 510.232 202.962 511.712C202.959 512.611 202.957 513.51 202.955 514.436C202.954 515.247 202.953 516.058 202.952 516.894C202.825 518.767 202.825 518.767 201.845 519.747C199.27 519.845 196.721 519.879 194.146 519.871C192.922 519.874 192.922 519.874 191.673 519.876C188.916 519.88 186.159 519.877 183.402 519.874C181.435 519.875 179.467 519.877 177.499 519.879C172.139 519.883 166.779 519.882 161.419 519.879C155.823 519.876 150.227 519.878 144.631 519.88C135.231 519.882 125.832 519.879 116.432 519.875C105.548 519.869 94.6642 519.871 83.7801 519.877C74.4536 519.881 65.1272 519.882 55.8007 519.879C50.2224 519.877 44.644 519.877 39.0657 519.881C33.8226 519.883 28.5795 519.881 23.3365 519.876C21.4062 519.874 19.476 519.875 17.5458 519.877C14.9226 519.88 12.2995 519.876 9.67633 519.871C8.90217 519.874 8.12802 519.876 7.33041 519.878C2.08918 519.859 2.08918 519.859 0.997601 518.767C0.901556 515.768 0.870323 512.792 0.879782 509.793C0.878945 508.839 0.878109 507.886 0.877246 506.903C0.875622 503.683 0.881038 500.462 0.886375 497.241C0.886651 494.943 0.886497 492.644 0.885941 490.346C0.885659 484.084 0.891438 477.823 0.89826 471.561C0.903747 465.687 0.904748 459.813 0.905757 453.939C0.907904 442.301 0.91443 430.663 0.923689 419.025C0.932677 407.717 0.939615 396.409 0.943782 385.101C0.944039 384.404 0.944296 383.708 0.944561 382.99C0.94584 379.496 0.947079 376.002 0.948297 372.507C0.95846 343.5 0.975795 314.494 0.997601 285.487C6.38051 283.692 12.2307 284.809 17.837 285.18Z" fill="#1C5471"/>
<path d="M163.237 0.0130137C164.869 0.0133333 164.869 0.0133333 166.534 0.0136594C167.787 0.00915178 169.039 0.00464419 170.33 0C171.732 0.00491635 173.135 0.0100155 174.538 0.0152774C176.018 0.0137221 177.498 0.0113085 178.979 0.00810613C183.061 0.00179444 187.143 0.00778713 191.225 0.0157164C195.621 0.0221437 200.018 0.0173169 204.415 0.0138716C213.033 0.00892076 221.651 0.0144702 230.27 0.0235265C240.296 0.0336848 250.322 0.0336363 260.348 0.0331591C278.23 0.0326679 296.112 0.0416599 313.995 0.0558835C331.367 0.0696944 348.739 0.0766344 366.111 0.0759846C367.716 0.0759259 367.716 0.0759258 369.354 0.0758659C370.956 0.0758066 370.956 0.0758066 372.591 0.0757461C392.34 0.0750707 412.089 0.0808382 431.838 0.0896186C438.835 0.092581 445.833 0.093618 452.83 0.094061C461.35 0.0947281 469.871 0.0990832 478.391 0.10811C482.743 0.11265 487.095 0.115616 491.446 0.114388C495.423 0.113321 499.4 0.116729 503.377 0.123846C504.822 0.125633 506.267 0.125741 507.713 0.124074C509.664 0.12207 511.616 0.126594 513.567 0.131529C514.655 0.13222 515.743 0.13291 516.864 0.133621C519.282 0.257613 519.282 0.257612 520.262 1.23778C520.356 2.76312 520.382 4.29274 520.38 5.82097C520.382 7.3075 520.382 7.3075 520.384 8.82407C520.38 9.92038 520.377 11.0167 520.373 12.1462C520.373 13.2936 520.374 14.4409 520.374 15.6231C520.373 18.7781 520.368 21.9331 520.361 25.0881C520.355 28.3821 520.355 31.676 520.354 34.9699C520.351 41.2114 520.342 47.4529 520.333 53.6944C520.322 60.7984 520.316 67.9024 520.311 75.0065C520.301 89.6237 520.284 104.241 520.262 118.858C515.677 118.241 511.51 117.406 507.116 115.948C505.905 115.554 504.695 115.16 503.447 114.755C502.487 114.44 502.487 114.44 501.506 114.119C420.449 87.7286 332.335 78.0932 116.633 134.322C108.8 138.323 101.125 142.55 93.5894 147.088C88.3727 150.223 88.3727 150.223 86.2354 150.223C86.8489 146.164 88.2037 142.977 90.035 139.314C90.3265 138.726 90.618 138.139 90.9183 137.534C91.8935 135.574 92.8771 133.617 93.8607 131.661C94.5628 130.254 95.2643 128.846 95.9655 127.438C97.8689 123.621 99.7798 119.807 101.692 115.993C103.692 112.004 105.685 108.011 107.679 104.019C111.028 97.3168 114.382 90.6175 117.739 83.9196C121.622 76.1706 125.498 68.4181 129.371 60.6636C133.094 53.2077 136.822 45.7541 140.552 38.3015C142.141 35.1276 143.728 31.953 145.314 28.7778C147.18 25.0422 149.05 21.3086 150.923 17.5766C151.611 16.2045 152.297 14.8319 152.982 13.4585C153.915 11.5883 154.853 9.72062 155.792 7.85351C156.317 6.80638 156.841 5.75925 157.381 4.68039C159.766 0.347093 159.766 0.347094 163.237 0.0130137Z" fill="#1C5471"/>
<path d="M309.211 138.262C310.434 138.255 311.656 138.248 312.916 138.241C316.837 138.224 320.759 138.217 324.681 138.216C325.684 138.216 325.684 138.216 326.709 138.215C346.961 138.214 366.935 138.485 387.017 141.402C388.447 141.604 389.877 141.806 391.307 142.008C429.5 147.471 466.452 156.785 502.933 169.275C504.711 169.882 504.711 169.882 506.525 170.502C508.166 171.075 508.166 171.075 509.841 171.661C510.793 171.994 511.746 172.326 512.728 172.669C513.597 173.025 514.467 173.381 515.363 173.747C516.214 174.048 517.064 174.349 517.941 174.658C520.262 176.688 520.262 176.688 520.709 178.63C520.885 181.337 520.89 184.004 520.851 186.716C520.855 187.76 520.859 188.803 520.864 189.878C520.872 193.391 520.845 196.903 520.818 200.416C520.817 202.927 520.817 205.438 520.82 207.949C520.821 213.365 520.807 218.78 520.78 224.195C520.74 232.024 520.727 239.854 520.721 247.684C520.71 260.386 520.678 273.088 520.632 285.791C520.587 298.131 520.552 310.472 520.531 322.812C520.53 323.573 520.529 324.333 520.527 325.117C520.521 328.932 520.515 332.746 520.509 336.561C520.458 368.218 520.371 399.875 520.262 431.532C517.661 429.055 516.348 426.855 514.877 423.556C514.417 422.537 513.957 421.518 513.483 420.468C512.992 419.368 512.501 418.269 511.995 417.136C510.935 414.805 509.873 412.476 508.807 410.148C508.537 409.556 508.266 408.965 507.987 408.355C499.714 390.32 490.376 373.022 480.092 356.059C479.327 354.794 479.327 354.794 478.546 353.505C467.917 336.062 455.978 319.756 442.862 304.11C442.337 303.482 441.812 302.855 441.272 302.208C436.307 296.293 431.349 290.417 425.778 285.058C424.08 283.359 422.55 281.564 421.002 279.728C417.67 275.868 414.009 272.517 410.182 269.153C408.484 267.652 406.806 266.126 405.154 264.574C397.288 257.194 388.805 250.748 380.159 244.32C379.574 243.88 378.989 243.44 378.387 242.987C368.354 235.456 357.726 228.987 346.847 222.756C345.724 222.111 345.724 222.111 344.579 221.454C307.754 200.575 266.285 189.675 224.379 185.509C223.162 185.381 221.944 185.252 220.69 185.119C193.908 182.813 166.597 184.531 140.06 188.484C136.126 189.069 132.357 189.611 128.364 189.43C131.761 185.563 135.665 183.349 140.121 180.915C140.901 180.488 141.68 180.061 142.483 179.621C192.772 152.497 252.164 138.479 309.211 138.262Z" fill="#1C5471"/>
<path d="M8.37872 0.135635C9.30049 0.139159 10.2223 0.142683 11.172 0.146314C12.6199 0.146099 12.6199 0.146099 14.0971 0.14588C17.3044 0.146566 20.5117 0.154206 23.719 0.161868C25.9361 0.163695 28.1533 0.165091 30.3705 0.166071C36.2189 0.169821 42.0673 0.179458 47.9157 0.190285C53.8785 0.200294 59.8412 0.204785 65.804 0.209728C77.5131 0.220255 89.2221 0.237342 100.931 0.257588C95.0898 12.7113 89.0887 25.0721 82.9282 37.3707C82.0483 39.1309 81.1687 40.8912 80.2892 42.6515C77.9332 47.3657 75.5749 52.0786 73.2161 56.7913C70.7395 61.7406 68.2651 66.691 65.7905 71.6413C61.1184 80.9863 56.4444 90.3304 51.7696 99.6741C46.4416 110.324 41.1158 120.975 35.7901 131.626C24.8482 153.509 13.9034 175.391 2.9568 197.271C2.31017 197.271 1.66354 197.271 0.997316 197.271C0.974463 171.729 0.957169 146.186 0.946554 120.643C0.941494 108.784 0.934593 96.9254 0.923405 85.0663C0.913662 74.7341 0.907324 64.4018 0.905134 54.0695C0.903853 48.595 0.900827 43.1205 0.893728 37.646C0.887108 32.4996 0.88502 27.3533 0.8865 22.2069C0.886229 20.3122 0.884262 18.4175 0.880525 16.5228C0.875693 13.9478 0.876808 11.3728 0.879498 8.79782C0.876644 8.03792 0.87379 7.27802 0.87085 6.49509C0.890104 -0.264438 1.73329 0.146372 8.37872 0.135635Z" fill="#1C5471"/>
<path d="M947.55 1.20093C1131.96 1.20093 1131.96 1.20093 1163.24 31.2297C1183.98 57.5191 1185.75 87.0998 1183.13 119.262C1177.75 147.484 1156.36 163.892 1134.94 180.975C1136.2 183.04 1137.45 185.105 1138.74 187.233C1149.78 205.434 1160.81 223.64 1171.82 241.852C1177.48 251.2 1183.15 260.538 1188.84 269.866C1191.01 273.44 1193.18 277.014 1195.35 280.589C1197.17 283.584 1199 286.579 1200.88 289.666C1204.55 296.353 1204.55 296.353 1204.55 301.719C1192.64 301.919 1180.74 302.064 1168.83 302.161C1164.78 302.201 1160.74 302.256 1156.69 302.326C1150.86 302.425 1145.03 302.47 1139.19 302.505C1135.69 302.547 1132.18 302.589 1128.57 302.633C1114.85 301.338 1106.5 297.574 1097.02 287.513C1091.73 279.696 1087.39 271.815 1083.15 263.379C1082.35 261.809 1081.55 260.239 1080.73 258.621C1077.35 251.969 1074.01 245.299 1070.66 238.63C1068.2 233.736 1065.72 228.853 1063.24 223.969C1061.78 221.062 1060.32 218.154 1058.81 215.158C1053.05 205.029 1049.65 200.776 1038.57 197.074C1037.69 231.607 1036.8 266.14 1035.89 301.719C1006.74 301.719 977.587 301.719 947.55 301.719C947.55 202.548 947.55 103.377 947.55 1.20093ZM1035.89 65.5977C1035.89 87.734 1035.89 109.87 1035.89 132.678C1041.8 132.899 1047.71 133.12 1053.8 133.348C1057.12 133.473 1060.44 133.597 1063.87 133.726C1074.92 132.507 1078.99 129.726 1086.76 121.945C1093.06 111.107 1094.08 99.3518 1092.11 87.0632C1086.53 76.2718 1082.09 69.8214 1070.7 65.5977C1061.92 64.9498 1061.92 64.9498 1052.62 65.2623C1047.1 65.3729 1041.58 65.4836 1035.89 65.5977Z" fill="#1C5471"/>
<path d="M1247.78 0.778066C1259.48 0.543049 1271.18 0.400727 1282.88 0.274785C1286.19 0.207314 1289.49 0.139843 1292.89 0.070327C1325.19 -0.190567 1325.19 -0.190567 1339.15 8.83056C1349.92 21.9993 1352.35 33.599 1354.57 49.9253C1354.94 52.3886 1355.31 54.8519 1355.69 57.3898C1356.89 65.4885 1358.03 73.5943 1359.17 81.7014C1360 87.3358 1360.83 92.9697 1361.66 98.603C1363.83 113.398 1365.96 128.2 1368.07 143.003C1370.24 158.121 1372.46 173.233 1374.67 188.345C1379 217.972 1383.27 247.607 1387.52 277.247C1387.9 274.308 1388.29 271.369 1388.69 268.34C1392.34 240.576 1396.01 212.814 1399.71 185.056C1401.61 170.787 1403.51 156.517 1405.38 142.244C1407.19 128.457 1409.02 114.674 1410.87 100.892C1411.57 95.6467 1412.26 90.3999 1412.94 85.1521C1413.9 77.7744 1414.89 70.4012 1415.89 63.0283C1416.16 60.8813 1416.43 58.7344 1416.71 56.5224C1419.13 39.0682 1421.75 20.4208 1434.37 7.48848C1445.58 0.934566 1454.87 0.450257 1467.76 0.51594C1470.75 0.52459 1473.75 0.53324 1476.83 0.542153C1479.95 0.564643 1483.06 0.587134 1486.27 0.610305C1489.43 0.622416 1492.58 0.634526 1495.83 0.647003C1503.62 0.678615 1511.4 0.722763 1519.19 0.778066C1517.49 16.8831 1514.41 32.151 1510.45 47.8414C1509.84 50.3058 1509.22 52.7701 1508.59 55.3092C1506.58 63.3972 1504.55 71.4801 1502.51 79.5625C1501.09 85.2102 1499.68 90.858 1498.26 96.5059C1495.3 108.317 1492.32 120.126 1489.34 131.933C1485.52 147.046 1481.74 162.169 1477.98 177.295C1475.07 188.952 1472.13 200.602 1469.19 212.25C1467.78 217.823 1466.39 223.398 1465.01 228.976C1463.07 236.776 1461.09 244.565 1459.11 252.352C1458.27 255.791 1458.27 255.791 1457.41 259.299C1453.2 275.544 1448.21 288.927 1433.45 298.322C1418.38 303.785 1401.96 302.564 1386.17 302.411C1382.95 302.442 1379.74 302.473 1376.42 302.505C1344.84 302.401 1344.84 302.401 1331.08 293.352C1321.63 279.132 1317.02 265.169 1312.74 248.742C1312.07 246.222 1311.39 243.701 1310.69 241.104C1308.47 232.824 1306.28 224.535 1304.1 216.245C1302.55 210.466 1301.01 204.688 1299.46 198.91C1295.41 183.733 1291.38 168.547 1287.37 153.36C1284.08 140.959 1280.77 128.564 1277.46 116.169C1273.51 101.383 1269.57 86.5936 1265.64 71.8036C1264.89 68.9848 1264.14 66.1661 1263.36 63.2619C1261.24 55.2842 1259.13 47.3049 1257.02 39.3249C1256.39 36.9681 1255.76 34.6113 1255.12 32.183C1252.37 21.7582 1249.71 11.3939 1247.78 0.778066Z" fill="#1C5471"/>
<path d="M717.216 0.196775C720.483 0.141373 723.75 0.085971 727.115 0.0288902C758.922 -0.109799 758.922 -0.109799 772.976 8.92679C783.017 21.6544 787.03 34.0002 791.027 49.3792C791.675 51.7749 792.323 54.1707 792.991 56.6391C795.117 64.5252 797.2 72.422 799.282 80.3198C800.757 85.8339 802.235 91.3474 803.715 96.8602C806.81 108.407 809.884 119.959 812.943 131.515C816.85 146.274 820.79 161.024 824.743 175.771C828.528 189.895 832.296 204.024 836.063 218.153C836.776 220.823 837.489 223.494 838.224 226.245C840.258 233.871 842.28 241.5 844.299 249.131C845.187 252.452 845.187 252.452 846.093 255.84C850.092 271.028 853.352 286.289 856.28 301.718C844.524 301.953 832.768 302.095 821.01 302.222C817.685 302.289 814.359 302.357 810.933 302.426C807.712 302.452 804.49 302.478 801.171 302.505C798.216 302.547 795.261 302.589 792.216 302.633C779.387 301.25 770.966 297.156 762.016 287.854C755.83 278.717 754.38 271.721 752.598 260.856C752.28 258.981 751.963 257.106 751.636 255.173C750.641 249.205 749.71 243.23 748.791 237.25C748.491 235.354 748.191 233.457 747.882 231.503C745.695 217.666 743.653 203.81 741.632 189.949C740.988 185.579 740.344 181.21 739.698 176.84C738.022 165.488 736.355 154.135 734.692 142.781C732.013 124.502 729.325 106.224 726.627 87.9481C725.692 81.598 724.764 75.247 723.836 68.8959C723.265 65.017 722.694 61.1381 722.122 57.2593C721.628 53.8815 721.133 50.5038 720.623 47.0237C719.55 40.4292 718.22 34.1792 716.545 27.7299C716.159 30.7565 715.772 33.783 715.375 36.9013C711.73 65.4409 708.055 93.9763 704.349 122.508C702.445 137.176 700.552 151.845 698.683 166.518C696.88 180.681 695.047 194.841 693.195 208.998C692.494 214.396 691.803 219.796 691.122 225.197C690.167 232.769 689.174 240.335 688.173 247.902C687.901 250.129 687.628 252.357 687.348 254.652C685.181 270.6 681.733 283.205 669.518 294.499C658.97 301.616 651.105 302.041 638.668 301.98C635.542 301.972 632.415 301.963 629.194 301.954C625.93 301.932 622.665 301.909 619.301 301.886C616.005 301.874 612.709 301.862 609.313 301.849C601.166 301.817 593.018 301.771 584.871 301.718C592.227 267.8 600.243 234.093 608.731 200.441C609.961 195.551 611.192 190.66 612.422 185.769C614.976 175.628 617.535 165.488 620.098 155.35C623.374 142.385 626.626 129.414 629.873 116.442C632.394 106.387 634.932 96.3364 637.474 86.2867C638.681 81.5033 639.882 76.7184 641.077 71.9319C642.742 65.2648 644.432 58.6042 646.127 51.9447C646.849 49.0184 646.849 49.0184 647.587 46.033C652.315 27.6559 657.517 14.3723 673.549 3.55447C687.603 -1.12813 702.507 0.258361 717.216 0.196775Z" fill="#1C5471"/>
<path d="M1773.79 1.20093C1852.65 1.20093 1931.51 1.20093 2012.77 1.20093C2012.77 61.8687 2012.77 61.8687 1999.23 77.0703C1987.48 83.8283 1976.89 82.7949 1963.6 82.307C1961.1 82.2587 1958.59 82.2103 1956.02 82.1604C1949.87 82.0345 1943.73 81.8585 1937.58 81.6367C1937.6 83.9464 1937.62 86.256 1937.64 88.6356C1937.8 110.449 1937.92 132.263 1938 154.077C1938.04 165.291 1938.1 176.504 1938.19 187.717C1938.28 198.548 1938.33 209.378 1938.35 220.209C1938.36 224.332 1938.39 228.455 1938.44 232.578C1938.49 238.373 1938.5 244.166 1938.5 249.961C1938.52 253.253 1938.53 256.546 1938.55 259.938C1937.1 274.004 1933.31 284.502 1922.81 294.457C1898.8 310.043 1880.45 301.495 1846.29 301.495C1846.29 228.942 1846.29 156.388 1846.29 81.6367C1822.36 81.6367 1798.44 81.6367 1773.79 81.6367C1773.79 55.0929 1773.79 28.5491 1773.79 1.20093Z" fill="#1C5471"/>
<path d="M1651.65 0.00757788C1655.78 0.0335061 1655.78 0.0335061 1660.01 0.0599581C1662.85 0.1049 1665.7 0.149843 1668.64 0.196147C1671.54 0.220346 1674.44 0.244546 1677.43 0.269479C1684.57 0.332511 1691.71 0.42063 1698.85 0.53138C1699.16 36.6191 1699.4 72.7065 1699.55 108.795C1699.62 125.553 1699.71 142.31 1699.87 159.067C1700.01 175.238 1700.1 191.409 1700.13 207.582C1700.16 213.751 1700.2 219.921 1700.28 226.09C1700.37 234.733 1700.39 243.372 1700.38 252.015C1700.43 254.566 1700.48 257.116 1700.53 259.743C1700.44 271.231 1700.06 279.568 1692.85 288.87C1681.44 299.012 1672.09 301.592 1656.94 301.424C1654.18 301.407 1651.42 301.39 1648.58 301.372C1644.31 301.304 1644.31 301.304 1639.95 301.236C1637.05 301.212 1634.15 301.187 1631.16 301.162C1624.02 301.099 1616.88 301.011 1609.74 300.9C1609.43 264.813 1609.19 228.725 1609.04 192.637C1608.97 175.879 1608.87 159.122 1608.72 142.365C1608.57 126.193 1608.49 110.023 1608.46 93.8501C1608.43 87.6804 1608.38 81.5108 1608.31 75.3414C1608.21 66.6987 1608.2 58.0597 1608.21 49.4165C1608.16 46.8663 1608.11 44.3161 1608.06 41.6886C1608.15 30.2013 1608.53 21.8643 1615.74 12.5616C1627.15 2.42015 1636.5 -0.160524 1651.65 0.00757788Z" fill="#1C5471"/>
<path d="M1620.21 405.699C1629.79 410.241 1629.79 410.241 1636.34 416.465C1638.34 418.352 1640.34 420.239 1642.39 422.184C1653.68 440.755 1654.49 462.867 1649.79 483.748C1644.82 498.024 1638.54 507.733 1625.59 516.043C1611.15 520.861 1593.96 521.438 1579.34 516.895C1566.87 510.356 1558.55 500.442 1554.11 487.08C1550.24 466.156 1549.71 442.954 1561.06 424.539C1578.45 404.453 1594.43 403.096 1620.21 405.699ZM1588.79 428.239C1579.08 439.271 1579.38 445.58 1579.21 460.199C1579.14 463.709 1579.07 467.22 1579 470.838C1579.94 481.685 1582.14 488.067 1587.95 497.204C1595.47 501.882 1595.47 501.882 1604.08 502.587C1613.66 498.444 1617.06 495.205 1622.9 486.439C1626.31 467.848 1627.16 450.313 1620.21 432.612C1614.23 425.668 1614.23 425.668 1606.77 421.847C1595.75 420.659 1595.75 420.659 1588.79 428.239Z" fill="#1C5471"/>
<path d="M1164.51 405.912C1173.35 405.912 1182.18 405.912 1191.28 405.912C1191.35 408.489 1191.41 411.065 1191.48 413.72C1191.74 423.265 1192 432.809 1192.28 442.354C1192.39 446.487 1192.5 450.621 1192.61 454.755C1192.77 460.692 1192.94 466.627 1193.11 472.563C1193.15 474.416 1193.2 476.269 1193.25 478.179C1193.44 488.058 1193.44 488.058 1196.63 497.271C1205.42 499.826 1209.21 500.23 1218.05 497.271C1221.99 489.361 1221.36 481.249 1221.57 472.563C1221.63 470.662 1221.68 468.761 1221.74 466.803C1221.91 460.725 1222.07 454.647 1222.23 448.569C1222.35 444.451 1222.46 440.333 1222.58 436.215C1222.87 426.114 1223.14 416.013 1223.4 405.912C1232.23 405.912 1241.07 405.912 1250.17 405.912C1250.43 417.813 1250.63 429.713 1250.76 441.616C1250.81 445.658 1250.88 449.7 1250.98 453.742C1251.11 459.579 1251.17 465.413 1251.21 471.251C1251.27 474.755 1251.33 478.259 1251.38 481.869C1249.88 494.314 1246.44 500.386 1239.46 510.707C1225.42 521.632 1208.26 520.779 1191.28 518.768C1182.88 516.283 1179.56 513.861 1172.54 508.02C1165.5 494.487 1163.54 484.632 1163.73 469.152C1163.74 467.33 1163.75 465.508 1163.76 463.63C1163.81 457.881 1163.91 452.134 1164.01 446.386C1164.05 442.458 1164.09 438.531 1164.12 434.604C1164.21 425.039 1164.35 415.476 1164.51 405.912Z" fill="#1C5471"/>
<path d="M1317.43 408.314C1368.39 408.314 1368.39 408.314 1389.85 419.143C1404.68 434.501 1404.07 449.212 1403.82 469.863C1402.95 483.693 1401.04 494.816 1390.78 504.582C1366.7 522.723 1353.25 516.606 1317.43 516.606C1317.43 480.87 1317.43 445.133 1317.43 408.314ZM1341.57 424.558C1341.57 449.573 1341.57 474.589 1341.57 500.362C1361.59 499.744 1361.59 499.744 1369.57 492.41C1380.28 478.131 1377.76 460.705 1376.44 443.509C1374.2 434.808 1372.81 433.38 1365.71 427.265C1357.75 426.372 1349.78 425.478 1341.57 424.558Z" fill="#1C5471"/>
<path d="M957.355 406.124C964.943 408.921 969.571 411.918 976.055 416.899C970.765 424.9 970.765 424.9 965.369 433.062C963.551 432.229 961.732 431.395 959.859 430.537C950.958 427.29 942.723 425.876 933.311 424.981C930.666 426.314 930.666 426.314 927.968 427.675C927.968 432.119 927.968 436.564 927.968 441.143C930.544 442.185 933.12 443.227 935.774 444.3C939.183 445.716 942.592 447.133 946.001 448.551C947.695 449.232 949.389 449.912 951.135 450.614C961.466 454.954 969.151 459.104 976.055 468.081C979.918 479.788 979.588 489.857 975.554 501.416C968.784 511.304 963.261 515.482 952.012 519.263C930.343 521.086 914.474 520.232 895.91 508.488C895.91 500.406 895.91 500.406 899.25 495.692C900.792 494.581 902.335 493.47 903.925 492.325C908.902 493.272 908.902 493.272 914.611 495.019C931.777 500.197 931.777 500.197 949.34 497.712C949.34 492.379 949.34 487.045 949.34 481.55C946.254 479.994 943.169 478.439 939.99 476.836C937.082 475.351 937.082 475.351 934.115 473.837C930.139 471.856 926.125 469.949 922.072 468.134C913.398 464.158 907.554 461.117 901.253 453.77C896.815 441.743 896.694 432.083 901.754 420.267C916.251 402.12 936.033 403.782 957.355 406.124Z" fill="#1C5471"/>
<path d="M1028.01 408.314C1055.36 408.314 1082.7 408.314 1110.88 408.314C1110.88 413.664 1110.88 419.014 1110.88 424.527C1101.17 424.527 1091.47 424.527 1081.47 424.527C1081.47 454.844 1081.47 485.161 1081.47 516.397C1073.53 516.397 1065.59 516.397 1057.42 516.397C1057.42 486.08 1057.42 455.763 1057.42 424.527C1047.71 424.527 1038.01 424.527 1028.01 424.527C1028.01 419.176 1028.01 413.826 1028.01 408.314Z" fill="#1C5471"/>
<path d="M1465.15 405.912C1473.07 405.912 1481 405.912 1489.17 405.912C1489.17 442.372 1489.17 478.832 1489.17 516.397C1481.24 516.397 1473.31 516.397 1465.15 516.397C1465.15 479.937 1465.15 443.477 1465.15 405.912Z" fill="#1C5471"/>
</svg>
