<svg width="1428" height="520" viewBox="0 0 1428 520" fill="none" xmlns="http://www.w3.org/2000/svg">
<path d="M362.679 1.20093C547.088 1.20093 547.088 1.20093 578.371 31.2297C599.105 57.5191 600.874 87.0998 598.26 119.262C592.876 147.484 571.489 163.892 550.073 180.975C551.326 183.04 552.578 185.105 553.869 187.233C564.906 205.434 575.934 223.64 586.952 241.852C592.609 251.2 598.281 260.538 603.97 269.866C606.139 273.44 608.307 277.014 610.475 280.589C612.3 283.584 614.126 286.579 616.006 289.666C619.677 296.353 619.677 296.353 619.677 301.719C607.771 301.919 595.866 302.064 583.959 302.161C579.913 302.201 575.868 302.256 571.823 302.326C565.988 302.425 560.155 302.47 554.319 302.505C550.814 302.547 547.309 302.589 543.698 302.633C529.975 301.338 521.626 297.574 512.151 287.513C506.863 279.696 502.515 271.815 498.279 263.379C497.481 261.809 496.683 260.239 495.861 258.621C492.482 251.969 489.139 245.299 485.792 238.63C483.33 233.736 480.849 228.853 478.368 223.969C476.908 221.062 475.448 218.154 473.944 215.158C468.181 205.029 464.779 200.776 453.699 197.074C452.816 231.607 451.932 266.14 451.022 301.719C421.869 301.719 392.716 301.719 362.679 301.719C362.679 202.548 362.679 103.377 362.679 1.20093ZM451.022 65.5976C451.022 87.734 451.022 109.87 451.022 132.678C456.93 132.899 462.838 133.12 468.925 133.348C472.248 133.473 475.571 133.597 478.995 133.726C490.047 132.507 494.123 129.726 501.886 121.945C508.194 111.107 509.208 99.3518 507.24 87.0632C501.658 76.2718 497.217 69.8214 485.824 65.5976C477.045 64.9498 477.045 64.9498 467.754 65.2623C462.232 65.3729 456.711 65.4836 451.022 65.5976Z" fill="#1C5471"/>
<path d="M662.91 0.778066C674.61 0.543049 686.31 0.400727 698.012 0.274785C701.315 0.207314 704.618 0.139843 708.021 0.070327C740.321 -0.190567 740.321 -0.190567 754.275 8.83056C765.049 21.9993 767.477 33.599 769.698 49.9253C770.067 52.3886 770.435 54.8519 770.815 57.3898C772.017 65.4885 773.16 73.5943 774.304 81.7014C775.128 87.3358 775.956 92.9697 776.788 98.603C778.962 113.398 781.087 128.2 783.202 143.003C785.371 158.121 787.586 173.233 789.797 188.345C794.125 217.972 798.402 247.607 802.645 277.247C803.031 274.308 803.418 271.369 803.815 268.34C807.466 240.576 811.141 212.814 814.841 185.056C816.742 170.787 818.634 156.517 820.507 142.244C822.315 128.457 824.147 114.674 825.995 100.892C826.694 95.6467 827.385 90.3999 828.068 85.1521C829.028 77.7744 830.019 70.4012 831.017 63.0283C831.289 60.8813 831.562 58.7344 831.843 56.5224C834.255 39.0682 836.88 20.4208 849.504 7.48848C860.713 0.934566 869.995 0.450257 882.884 0.51594C885.88 0.52459 888.877 0.53324 891.964 0.542153C895.078 0.564643 898.192 0.587134 901.401 0.610305C904.556 0.622416 907.712 0.634526 910.963 0.647003C918.749 0.678615 926.534 0.722763 934.319 0.778066C932.618 16.8831 929.541 32.151 925.577 47.8414C924.965 50.3058 924.353 52.7701 923.722 55.3092C921.708 63.3972 919.675 71.4801 917.639 79.5625C916.223 85.2102 914.806 90.858 913.39 96.5059C910.425 108.317 907.448 120.126 904.465 131.933C900.649 147.046 896.874 162.169 893.109 177.295C890.2 188.952 887.263 200.602 884.318 212.25C882.914 217.823 881.52 223.398 880.137 228.976C878.2 236.776 876.223 244.565 874.236 252.352C873.396 255.791 873.396 255.791 872.539 259.299C868.33 275.544 863.342 288.927 848.58 298.322C833.514 303.785 817.094 302.564 801.302 302.411C798.084 302.442 794.866 302.473 791.55 302.505C759.969 302.401 759.969 302.401 746.214 293.352C736.757 279.132 732.148 265.169 727.874 248.742C727.195 246.222 726.516 243.701 725.817 241.104C723.595 232.824 721.41 224.535 719.226 216.245C717.684 210.466 716.139 204.688 714.592 198.91C710.536 183.733 706.513 168.547 702.496 153.36C699.209 140.959 695.9 128.564 692.59 116.169C688.641 101.383 684.702 86.5936 680.765 71.8036C680.015 68.9848 679.265 66.1661 678.492 63.2619C676.372 55.2842 674.257 47.3049 672.145 39.3249C671.519 36.9681 670.892 34.6113 670.246 32.183C667.494 21.7582 664.84 11.3939 662.91 0.778066Z" fill="#1C5471"/>
<path d="M132.346 0.196775C135.612 0.141373 138.879 0.085971 142.244 0.0288902C174.051 -0.109799 174.051 -0.109799 188.105 8.92679C198.146 21.6544 202.159 34.0002 206.156 49.3792C206.804 51.7749 207.452 54.1707 208.12 56.6391C210.246 64.5252 212.329 72.422 214.411 80.3198C215.886 85.8339 217.364 91.3474 218.845 96.8602C221.939 108.407 225.013 119.959 228.072 131.515C231.979 146.274 235.919 161.024 239.872 175.771C243.657 189.895 247.425 204.024 251.192 218.153C251.905 220.823 252.618 223.494 253.353 226.245C255.387 233.871 257.41 241.5 259.428 249.131C260.316 252.452 260.316 252.452 261.222 255.84C265.221 271.028 268.481 286.289 271.409 301.718C259.653 301.953 247.897 302.095 236.139 302.222C232.814 302.289 229.488 302.357 226.062 302.426C222.841 302.452 219.619 302.478 216.3 302.505C213.345 302.547 210.39 302.589 207.345 302.633C194.516 301.25 186.095 297.156 177.145 287.854C170.959 278.717 169.51 271.721 167.727 260.856C167.409 258.981 167.092 257.106 166.765 255.173C165.77 249.205 164.839 243.23 163.92 237.25C163.62 235.354 163.32 233.457 163.011 231.503C160.824 217.666 158.782 203.81 156.761 189.949C156.118 185.579 155.473 181.21 154.827 176.84C153.151 165.488 151.485 154.135 149.821 142.781C147.142 124.502 144.454 106.224 141.756 87.9481C140.821 81.598 139.893 75.247 138.965 68.8959C138.394 65.017 137.823 61.1381 137.252 57.2593C136.757 53.8815 136.262 50.5038 135.752 47.0237C134.679 40.4292 133.349 34.1792 131.674 27.7299C131.288 30.7565 130.902 33.783 130.504 36.9013C126.859 65.4409 123.184 93.9763 119.478 122.508C117.574 137.176 115.681 151.845 113.813 166.518C112.009 180.681 110.176 194.841 108.324 208.998C107.623 214.396 106.932 219.796 106.252 225.197C105.296 232.769 104.303 240.335 103.303 247.902C103.03 250.129 102.757 252.357 102.477 254.652C100.31 270.6 96.8617 283.205 84.6475 294.499C74.0992 301.616 66.2344 302.041 53.797 301.98C50.6708 301.972 47.5445 301.963 44.3236 301.954C41.0587 301.932 37.7939 301.909 34.4302 301.886C31.1342 301.874 27.8382 301.862 24.4424 301.849C16.2948 301.817 8.14763 301.771 0.000244141 301.718C7.35649 267.8 15.3722 234.093 23.8598 200.441C25.0904 195.551 26.3209 190.66 27.5514 185.769C30.1049 175.628 32.6644 165.488 35.2273 155.35C38.5033 142.385 41.7554 129.414 45.0022 116.442C47.5231 106.387 50.0609 96.3364 52.6033 86.2867C53.8104 81.5033 55.0114 76.7184 56.2059 71.9319C57.8715 65.2648 59.5607 58.6042 61.2558 51.9446C61.9785 49.0184 61.9785 49.0184 62.7158 46.033C67.4439 27.6559 72.6457 14.3723 88.6784 3.55447C102.732 -1.12813 117.636 0.258361 132.346 0.196775Z" fill="#1C5471"/>
<path d="M1188.92 1.20093C1267.78 1.20093 1346.64 1.20093 1427.9 1.20093C1427.9 61.8687 1427.9 61.8687 1414.36 77.0703C1402.61 83.8283 1392.02 82.7949 1378.73 82.307C1376.23 82.2587 1373.72 82.2103 1371.15 82.1604C1365 82.0345 1358.86 81.8585 1352.71 81.6367C1352.73 83.9464 1352.75 86.256 1352.77 88.6357C1352.93 110.449 1353.05 132.263 1353.13 154.077C1353.17 165.291 1353.23 176.504 1353.32 187.717C1353.41 198.548 1353.46 209.378 1353.48 220.209C1353.49 224.332 1353.52 228.455 1353.56 232.578C1353.62 238.373 1353.63 244.166 1353.63 249.961C1353.65 253.253 1353.66 256.546 1353.68 259.938C1352.23 274.004 1348.44 284.502 1337.94 294.457C1313.93 310.043 1295.58 301.495 1261.42 301.495C1261.42 228.942 1261.42 156.388 1261.42 81.6367C1237.49 81.6367 1213.57 81.6367 1188.92 81.6367C1188.92 55.0929 1188.92 28.5491 1188.92 1.20093Z" fill="#1C5471"/>
<path d="M1066.78 0.00757788C1070.91 0.0335061 1070.91 0.0335061 1075.13 0.0599581C1077.98 0.1049 1080.83 0.149843 1083.77 0.196147C1086.67 0.220346 1089.57 0.244546 1092.56 0.269479C1099.7 0.332511 1106.84 0.42063 1113.98 0.53138C1114.29 36.6191 1114.53 72.7065 1114.68 108.795C1114.75 125.553 1114.84 142.31 1115 159.067C1115.14 175.238 1115.22 191.409 1115.26 207.582C1115.28 213.751 1115.33 219.921 1115.41 226.09C1115.5 234.733 1115.52 243.372 1115.51 252.015C1115.56 254.566 1115.61 257.116 1115.66 259.743C1115.57 271.231 1115.19 279.568 1107.98 288.87C1096.57 299.012 1087.22 301.592 1072.07 301.424C1069.31 301.407 1066.55 301.39 1063.71 301.372C1059.44 301.305 1059.44 301.305 1055.08 301.236C1052.18 301.212 1049.27 301.187 1046.29 301.162C1039.15 301.099 1032.01 301.011 1024.87 300.9C1024.55 264.813 1024.31 228.725 1024.17 192.637C1024.1 175.879 1024 159.122 1023.85 142.365C1023.7 126.193 1023.62 110.023 1023.59 93.8501C1023.56 87.6804 1023.51 81.5107 1023.44 75.3414C1023.34 66.6987 1023.33 58.0597 1023.33 49.4165C1023.29 46.8663 1023.24 44.3161 1023.19 41.6886C1023.28 30.2013 1023.66 21.8643 1030.87 12.5616C1042.28 2.42015 1051.63 -0.160524 1066.78 0.00757788Z" fill="#1C5471"/>
<path d="M1035.34 405.699C1044.92 410.241 1044.92 410.241 1051.47 416.465C1053.47 418.352 1055.46 420.239 1057.52 422.184C1068.81 440.756 1069.62 462.867 1064.91 483.748C1059.95 498.024 1053.67 507.733 1040.72 516.044C1026.28 520.861 1009.09 521.439 994.466 516.895C981.997 510.356 973.679 500.442 969.24 487.08C965.373 466.156 964.841 442.954 976.192 424.539C993.582 404.453 1009.56 403.096 1035.34 405.699ZM1003.92 428.239C994.209 439.272 994.512 445.58 994.34 460.199C994.271 463.71 994.201 467.22 994.13 470.838C995.066 481.685 997.265 488.067 1003.08 497.204C1010.6 501.882 1010.6 501.882 1019.21 502.587C1028.79 498.444 1032.19 495.205 1038.03 486.439C1041.44 467.848 1042.29 450.313 1035.34 432.613C1029.36 425.669 1029.36 425.669 1021.9 421.847C1010.88 420.659 1010.88 420.659 1003.92 428.239Z" fill="#1C5471"/>
<path d="M579.642 405.912C588.476 405.912 597.309 405.912 606.41 405.912C606.477 408.489 606.544 411.065 606.613 413.72C606.865 423.265 607.133 432.809 607.406 442.354C607.522 446.487 607.634 450.621 607.741 454.755C607.895 460.691 608.066 466.627 608.24 472.563C608.284 474.416 608.329 476.269 608.375 478.179C608.573 488.058 608.573 488.058 611.763 497.271C620.554 499.826 624.336 500.23 633.177 497.271C637.117 489.36 636.491 481.249 636.701 472.563C636.756 470.662 636.812 468.761 636.869 466.803C637.044 460.725 637.202 454.647 637.359 448.569C637.475 444.451 637.592 440.333 637.71 436.215C637.996 426.114 638.267 416.013 638.53 405.912C647.364 405.912 656.197 405.912 665.298 405.912C665.564 417.813 665.757 429.713 665.886 441.616C665.939 445.658 666.012 449.7 666.105 453.741C666.236 459.579 666.296 465.413 666.343 471.251C666.399 474.755 666.455 478.259 666.513 481.869C665.005 494.314 661.569 500.386 654.591 510.707C640.547 521.632 623.39 520.778 606.41 518.768C598.011 516.283 594.685 513.861 587.673 508.02C580.626 494.487 578.666 484.632 578.858 469.152C578.87 467.33 578.881 465.507 578.893 463.63C578.937 457.881 579.038 452.134 579.141 446.386C579.181 442.458 579.218 438.531 579.25 434.604C579.338 425.039 579.477 415.476 579.642 405.912Z" fill="#1C5471"/>
<path d="M732.564 408.314C783.523 408.314 783.523 408.314 804.98 419.143C819.814 434.5 819.198 449.212 818.946 469.863C818.077 483.693 816.169 494.816 805.913 504.582C781.831 522.722 768.376 516.606 732.564 516.606C732.564 480.87 732.564 445.133 732.564 408.314ZM756.703 424.558C756.703 449.573 756.703 474.589 756.703 500.362C776.719 499.744 776.719 499.744 784.697 492.409C795.413 478.131 792.885 460.705 791.57 443.509C789.328 434.807 787.938 433.38 780.841 427.265C772.876 426.372 764.91 425.478 756.703 424.558Z" fill="#1C5471"/>
<path d="M372.484 406.125C380.072 408.921 384.701 411.918 391.184 416.9C385.895 424.9 385.895 424.9 380.498 433.062C378.68 432.229 376.862 431.395 374.988 430.537C366.087 427.29 357.852 425.876 348.44 424.981C345.796 426.314 345.796 426.314 343.097 427.675C343.097 432.119 343.097 436.564 343.097 441.144C345.673 442.185 348.249 443.227 350.903 444.3C354.313 445.716 357.722 447.133 361.13 448.551C362.824 449.232 364.519 449.913 366.264 450.614C376.596 454.954 384.281 459.104 391.184 468.081C395.047 479.788 394.717 489.857 390.684 501.417C383.913 511.304 378.39 515.482 367.141 519.263C345.472 521.086 329.603 520.233 311.04 508.488C311.04 500.406 311.04 500.406 314.379 495.692C315.922 494.581 317.464 493.47 319.054 492.325C324.032 493.272 324.032 493.272 329.74 495.019C346.906 500.197 346.906 500.197 364.469 497.713C364.469 492.379 364.469 487.045 364.469 481.55C361.384 479.994 358.298 478.439 355.119 476.836C352.211 475.351 352.211 475.351 349.244 473.837C345.268 471.856 341.254 469.949 337.201 468.134C328.527 464.158 322.684 461.117 316.383 453.771C311.944 441.743 311.823 432.083 316.883 420.267C331.381 402.12 351.162 403.782 372.484 406.125Z" fill="#1C5471"/>
<path d="M443.141 408.314C470.486 408.314 497.831 408.314 526.005 408.314C526.005 413.664 526.005 419.014 526.005 424.526C516.302 424.526 506.599 424.526 496.602 424.526C496.602 454.844 496.602 485.161 496.602 516.397C488.663 516.397 480.724 516.397 472.544 516.397C472.544 486.08 472.544 455.762 472.544 424.526C462.841 424.526 453.138 424.526 443.141 424.526C443.141 419.176 443.141 413.826 443.141 408.314Z" fill="#1C5471"/>
<path d="M880.277 405.912C888.203 405.912 896.13 405.912 904.296 405.912C904.296 442.372 904.296 478.832 904.296 516.397C896.37 516.397 888.444 516.397 880.277 516.397C880.277 479.937 880.277 443.477 880.277 405.912Z" fill="#1C5471"/>
</svg>
