<svg width="532" height="774" viewBox="0 0 532 774" fill="none" xmlns="http://www.w3.org/2000/svg">
<path d="M346 284.263C346.904 284.871 346.904 284.871 347.826 285.492C356.109 291.124 363.858 297.262 371.393 303.861C372.502 304.828 373.619 305.787 374.741 306.739C380.546 311.705 385.965 317.042 391.363 322.44C392.926 324.001 394.497 325.554 396.068 327.106C402.498 333.5 408.365 340.146 414 347.263C414.976 348.437 415.956 349.608 416.941 350.774C429.887 366.351 441.03 383.645 451 401.263C451.437 402.031 451.874 402.8 452.324 403.592C472.114 438.604 486.782 475.056 499 513.263C499.333 514.263 499.665 515.263 500.008 516.293C500.284 517.148 500.56 518.003 500.844 518.884C501.187 519.925 501.187 519.925 501.537 520.987C502.168 524.089 502.027 527.105 502 530.263C471.587 530.308 441.174 530.344 410.761 530.365C407.173 530.367 403.586 530.37 399.998 530.373C398.927 530.373 398.927 530.373 397.834 530.374C386.257 530.383 374.68 530.399 363.103 530.417C351.231 530.436 339.359 530.447 327.487 530.451C320.816 530.453 314.145 530.46 307.473 530.474C301.201 530.488 294.929 530.492 288.656 530.489C286.348 530.489 284.039 530.493 281.731 530.501C278.592 530.511 275.453 530.509 272.314 530.503C270.928 530.512 270.928 530.512 269.514 530.521C263.228 530.491 263.228 530.491 261 528.263C260.719 525.776 260.556 523.383 260.473 520.888C260.404 519.343 260.335 517.798 260.267 516.253C260.217 515.033 260.217 515.033 260.167 513.787C256.871 434.24 234.229 351.929 174 296.263C153.914 278.496 131.095 266.561 107 255.263C107.33 254.603 107.66 253.943 108 253.263C112.617 251.808 117.393 250.903 122.125 249.888C122.835 249.733 123.545 249.578 124.277 249.419C200.069 233.029 280.524 240.074 346 284.263Z" fill="#EDBD72"/>
<path d="M18.1876 290.95C19.2298 291.018 19.2298 291.018 20.293 291.088C40.7926 292.465 60.4375 295.894 80.0001 302.263C80.7107 302.492 81.4213 302.721 82.1534 302.957C127.091 317.765 159.154 351.727 180.07 393.122C198.872 431.609 206.952 476.477 207.125 519.075C207.132 520.556 207.132 520.556 207.139 522.066C207.137 522.983 207.135 523.9 207.133 524.845C207.132 525.672 207.131 526.5 207.129 527.352C207 529.263 207 529.263 206 530.263C203.372 530.363 200.77 530.397 198.142 530.39C196.892 530.392 196.892 530.392 195.617 530.395C192.803 530.399 189.99 530.395 187.176 530.392C185.168 530.394 183.159 530.395 181.151 530.398C175.68 530.402 170.209 530.4 164.738 530.397C159.026 530.395 153.315 530.397 147.603 530.399C138.009 530.4 128.415 530.398 118.821 530.393C107.712 530.388 96.6032 530.39 85.4941 530.395C75.9748 530.4 66.4555 530.4 56.9362 530.398C51.2426 530.396 45.5489 530.396 39.8552 530.399C34.5037 530.402 29.1523 530.4 23.8008 530.394C21.8307 530.393 19.8606 530.393 17.8904 530.396C15.213 530.398 12.5357 530.395 9.85825 530.39C9.06809 530.392 8.27793 530.394 7.46383 530.397C2.11424 530.377 2.11424 530.377 1.0001 529.263C0.902064 526.204 0.870186 523.167 0.87984 520.107C0.878986 519.134 0.878133 518.162 0.877252 517.16C0.875594 513.874 0.881123 510.588 0.88657 507.302C0.886851 504.957 0.886694 502.612 0.886127 500.267C0.885839 493.879 0.891737 487.491 0.8987 481.102C0.904301 475.109 0.905323 469.116 0.906353 463.123C0.908543 451.25 0.915205 439.376 0.924656 427.503C0.933829 415.966 0.94091 404.429 0.945163 392.893C0.945426 392.182 0.945688 391.471 0.945959 390.739C0.947264 387.174 0.948528 383.609 0.949772 380.044C0.960145 350.45 0.977838 320.857 1.0001 291.263C6.49429 289.431 12.4654 290.571 18.1876 290.95Z" fill="#EDBD72"/>
<path d="M166.594 0.0132771C168.26 0.0136031 168.26 0.0136031 169.959 0.0139357C171.238 0.00933695 172.516 0.00473815 173.833 0C175.265 0.00501582 176.697 0.0102181 178.129 0.0155866C179.639 0.0139997 181.15 0.0115373 182.661 0.00827014C186.827 0.00183075 190.994 0.00794468 195.16 0.0160344C199.648 0.0225918 204.135 0.0176673 208.622 0.0141522C217.419 0.00910125 226.216 0.014763 235.012 0.0240025C245.246 0.0343663 255.479 0.0343169 265.712 0.0338299C283.964 0.0333289 302.216 0.0425028 320.468 0.0570142C338.199 0.0711045 355.931 0.0781849 373.662 0.077522C375.301 0.077462 375.301 0.077462 376.972 0.0774009C378.607 0.0773404 378.607 0.0773404 380.276 0.0772786C400.433 0.0765896 420.59 0.0824738 440.748 0.0914318C447.89 0.0944542 455.032 0.0955121 462.174 0.0959641C470.87 0.0966447 479.567 0.101088 488.264 0.110297C492.705 0.114929 497.147 0.117955 501.588 0.116703C505.648 0.115613 509.707 0.119091 513.766 0.126351C515.241 0.128175 516.716 0.128285 518.191 0.126584C520.183 0.12454 522.175 0.129156 524.167 0.13419C525.277 0.134895 526.387 0.135599 527.531 0.136325C530 0.262825 530 0.262825 531 1.26282C531.096 2.81903 531.122 4.37959 531.12 5.93874C531.122 7.45535 531.122 7.45535 531.124 9.0026C531.121 10.1211 531.117 11.2396 531.114 12.392C531.114 13.5625 531.114 14.7331 531.114 15.9392C531.113 19.158 531.108 22.3769 531.101 25.5957C531.095 28.9563 531.095 32.3169 531.093 35.6775C531.09 42.0452 531.082 48.413 531.072 54.7808C531.061 62.0285 531.055 69.2763 531.05 76.5241C531.04 91.437 531.022 106.35 531 121.263C526.32 120.633 522.067 119.781 517.582 118.294C516.346 117.892 515.111 117.49 513.838 117.076C512.857 116.755 512.857 116.755 511.856 116.428C429.123 89.5036 339.187 79.6732 119.026 137.04C111.031 141.122 103.198 145.434 95.5061 150.064C90.1816 153.263 90.1816 153.263 88 153.263C88.6262 149.122 90.009 145.87 91.8782 142.132C92.1757 141.533 92.4732 140.934 92.7798 140.317C93.7752 138.317 94.779 136.321 95.783 134.325C96.4996 132.889 97.2157 131.453 97.9313 130.017C99.8741 126.122 101.824 122.231 103.776 118.34C105.817 114.27 107.852 110.196 109.887 106.123C113.306 99.2858 116.729 92.451 120.155 85.6176C124.118 77.7117 128.074 69.8024 132.027 61.891C135.828 54.2843 139.633 46.6798 143.44 39.0765C145.061 35.8384 146.681 32.5995 148.3 29.3601C150.204 25.5489 152.113 21.7398 154.025 17.9322C154.727 16.5324 155.427 15.1319 156.127 13.7308C157.079 11.8228 158.036 9.9173 158.995 8.01241C159.53 6.9441 160.065 5.87578 160.617 4.77509C163.051 0.354116 163.051 0.354116 166.594 0.0132771Z" fill="#EDBD72"/>
<path d="M315.586 141.06C316.834 141.053 318.081 141.046 319.367 141.038C323.37 141.021 327.372 141.014 331.375 141.013C332.4 141.012 332.4 141.012 333.445 141.012C354.116 141.011 374.503 141.287 395 144.263C396.46 144.469 397.92 144.675 399.379 144.881C438.361 150.455 476.078 159.957 513.312 172.7C515.127 173.32 515.127 173.32 516.979 173.952C518.654 174.537 518.654 174.537 520.363 175.134C521.336 175.474 522.308 175.813 523.31 176.163C524.198 176.526 525.085 176.889 526 177.263C526.868 177.57 527.736 177.876 528.631 178.192C531 180.263 531 180.263 531.457 182.245C531.636 185.006 531.641 187.727 531.601 190.494C531.606 191.559 531.61 192.623 531.614 193.719C531.622 197.304 531.595 200.887 531.568 204.471C531.566 207.033 531.567 209.595 531.57 212.157C531.571 217.682 531.557 223.206 531.529 228.731C531.488 236.719 531.475 244.707 531.469 252.695C531.458 265.654 531.424 278.614 531.377 291.573C531.331 304.163 531.296 316.753 531.275 329.344C531.273 330.12 531.272 330.895 531.271 331.695C531.264 335.587 531.258 339.479 531.252 343.371C531.2 375.668 531.112 407.966 531 440.263C528.345 437.736 527.005 435.492 525.504 432.126C525.034 431.086 524.565 430.047 524.081 428.975C523.58 427.853 523.079 426.731 522.562 425.575C521.481 423.198 520.396 420.822 519.309 418.446C519.032 417.843 518.756 417.239 518.472 416.618C510.027 398.217 500.497 380.569 490 363.263C489.219 361.973 489.219 361.973 488.421 360.657C477.573 342.862 465.387 326.226 452 310.263C451.464 309.623 450.928 308.983 450.376 308.323C445.31 302.288 440.249 296.293 434.562 290.825C432.829 289.092 431.268 287.261 429.688 285.388C426.287 281.449 422.551 278.03 418.645 274.599C416.911 273.067 415.198 271.51 413.512 269.927C405.483 262.398 396.826 255.822 388 249.263C387.403 248.814 386.806 248.365 386.191 247.903C375.951 240.22 365.104 233.62 354 227.263C352.854 226.605 352.854 226.605 351.685 225.934C314.099 204.633 271.773 193.513 229 189.263C227.757 189.131 226.515 189 225.234 188.864C197.899 186.512 170.023 188.265 142.938 192.297C138.922 192.895 135.075 193.448 131 193.263C134.467 189.317 138.451 187.059 143 184.575C143.795 184.14 144.591 183.704 145.41 183.255C196.74 155.583 257.359 141.281 315.586 141.06Z" fill="#EDBD72"/>
<path d="M8.53394 0.138358C9.47477 0.141953 10.4156 0.145549 11.3849 0.149253C12.8628 0.149034 12.8628 0.149034 14.3706 0.14881C17.6442 0.14951 20.9177 0.157304 24.1913 0.165122C26.4544 0.166986 28.7174 0.16841 30.9804 0.16941C36.9497 0.173236 42.919 0.183067 48.8884 0.194114C54.9744 0.204325 61.0604 0.208907 67.1464 0.21395C79.0976 0.22469 91.0488 0.242123 103 0.262778C97.0377 12.9684 90.9125 25.5794 84.6247 38.1268C83.7266 39.9226 82.8288 41.7185 81.9311 43.5144C79.5265 48.324 77.1194 53.1323 74.7118 57.9404C72.184 62.9898 69.6584 68.0403 67.1326 73.0907C62.364 82.6249 57.5934 92.158 52.8219 101.691C47.3837 112.556 41.9478 123.422 36.5121 134.289C25.3439 156.615 14.1729 178.939 2.99993 201.263C2.33993 201.263 1.67993 201.263 0.999931 201.263C0.976605 175.203 0.958953 149.144 0.948119 123.084C0.942955 110.985 0.935911 98.8864 0.924491 86.7874C0.914547 76.2461 0.908078 65.7048 0.905842 55.1635C0.904535 49.5782 0.901447 43.9929 0.894201 38.4077C0.887444 33.1572 0.885313 27.9067 0.886823 22.6562C0.886547 20.7231 0.88454 18.7901 0.880725 16.8571C0.875793 14.23 0.876931 11.6029 0.879676 8.97581C0.876764 8.20053 0.873851 7.42525 0.87085 6.62648C0.890502 -0.269809 1.75112 0.149312 8.53394 0.138358Z" fill="#EDBD72"/>
<path d="M135 580.263C203.885 580.263 203.885 580.263 215.57 591.454C223.315 601.252 223.976 612.276 223 624.263C220.989 634.781 213 640.896 205 647.263C205.468 648.032 205.936 648.802 206.418 649.595C210.54 656.378 214.66 663.163 218.776 669.951C220.889 673.435 223.008 676.915 225.133 680.392C225.943 681.724 226.753 683.056 227.562 684.388C228.244 685.504 228.926 686.62 229.629 687.771C231 690.263 231 690.263 231 692.263C226.553 692.337 222.106 692.391 217.658 692.427C216.147 692.443 214.635 692.463 213.125 692.489C210.945 692.526 208.766 692.542 206.586 692.556C205.277 692.571 203.968 692.587 202.619 692.603C197.492 692.121 194.374 690.718 190.834 686.968C188.859 684.055 187.235 681.118 185.652 677.974C185.354 677.389 185.056 676.803 184.749 676.201C183.487 673.721 182.238 671.235 180.988 668.75C180.068 666.926 179.142 665.106 178.215 663.286C177.669 662.203 177.124 661.119 176.562 660.002C174.41 656.227 173.139 654.642 169 653.263C168.67 666.133 168.34 679.003 168 692.263C157.11 692.263 146.22 692.263 135 692.263C135 655.303 135 618.343 135 580.263ZM168 604.263C168 612.513 168 620.763 168 629.263C170.207 629.345 172.414 629.428 174.688 629.513C175.929 629.559 177.17 629.606 178.449 629.653C182.577 629.199 184.1 628.163 187 625.263C189.356 621.224 189.735 616.843 189 612.263C186.915 608.241 185.256 605.837 181 604.263C177.721 604.021 177.721 604.021 174.25 604.138C172.188 604.179 170.125 604.22 168 604.263Z" fill="#EDBD72"/>
<path d="M247 580.263C251.354 580.175 255.708 580.122 260.062 580.076C261.292 580.05 262.521 580.025 263.787 579.999C275.807 579.902 275.807 579.902 281 583.263C285.009 588.169 285.913 592.491 286.739 598.573C286.876 599.491 287.014 600.408 287.155 601.354C287.602 604.371 288.028 607.391 288.453 610.411C288.76 612.511 289.068 614.61 289.378 616.708C290.187 622.22 290.978 627.735 291.765 633.25C292.572 638.882 293.396 644.512 294.219 650.142C295.829 661.18 297.421 672.221 299 683.263C299.144 682.168 299.287 681.073 299.435 679.945C300.794 669.601 302.162 659.258 303.538 648.917C304.246 643.601 304.95 638.284 305.647 632.967C306.32 627.831 307.002 622.695 307.689 617.561C307.949 615.607 308.207 613.652 308.46 611.697C308.818 608.948 309.187 606.201 309.558 603.455C309.659 602.655 309.761 601.855 309.865 601.031C310.763 594.528 311.74 587.581 316.438 582.763C320.609 580.321 324.063 580.141 328.859 580.165C329.974 580.169 331.089 580.172 332.238 580.175C333.397 580.184 334.556 580.192 335.75 580.201C336.924 580.205 338.099 580.21 339.309 580.214C342.206 580.226 345.103 580.242 348 580.263C347.367 586.263 346.222 591.951 344.747 597.797C344.519 598.715 344.291 599.633 344.057 600.579C343.307 603.592 342.551 606.603 341.793 609.615C341.266 611.719 340.739 613.823 340.212 615.927C339.108 620.327 338 624.727 336.89 629.125C335.47 634.756 334.065 640.39 332.664 646.025C331.582 650.368 330.489 654.708 329.393 659.048C328.87 661.124 328.352 663.201 327.837 665.28C327.116 668.185 326.381 671.087 325.641 673.988C325.329 675.269 325.329 675.269 325.01 676.577C323.444 682.629 321.587 687.615 316.094 691.115C310.487 693.15 304.377 692.695 298.5 692.638C297.302 692.65 296.105 692.661 294.871 692.673C283.119 692.634 283.119 692.634 278 689.263C274.481 683.965 272.766 678.763 271.175 672.643C270.922 671.704 270.67 670.765 270.41 669.798C269.583 666.713 268.77 663.625 267.957 660.536C267.383 658.383 266.808 656.231 266.233 654.078C264.723 648.424 263.226 642.766 261.731 637.108C260.508 632.488 259.277 627.87 258.045 623.253C256.575 617.744 255.109 612.234 253.645 606.724C253.365 605.674 253.086 604.624 252.799 603.542C252.009 600.57 251.223 597.597 250.437 594.624C250.204 593.746 249.97 592.868 249.73 591.963C248.706 588.079 247.718 584.218 247 580.263Z" fill="#EDBD72"/>
<path d="M49.25 580.013C50.4656 579.992 51.6812 579.971 52.9336 579.95C64.77 579.899 64.77 579.899 70 583.263C73.7364 588.001 75.2298 592.597 76.7173 598.322C76.9585 599.214 77.1997 600.106 77.4482 601.025C78.2393 603.961 79.0143 606.901 79.7891 609.841C80.3382 611.894 80.8882 613.946 81.4391 615.998C82.5905 620.297 83.7347 624.598 84.873 628.9C86.327 634.394 87.7932 639.885 89.2642 645.375C90.6726 650.633 92.0748 655.893 93.4766 661.153C93.742 662.147 94.0074 663.141 94.2809 664.166C95.0378 667.005 95.7903 669.845 96.5415 672.686C96.8719 673.922 96.8719 673.922 97.2091 675.183C98.6974 680.837 99.9105 686.519 101 692.263C96.6251 692.35 92.2505 692.403 87.875 692.45C86.6375 692.475 85.4 692.5 84.125 692.526C82.9262 692.536 81.7273 692.546 80.4922 692.556C79.3925 692.571 78.2927 692.587 77.1597 692.603C72.3855 692.089 69.2519 690.564 65.9212 687.101C63.6192 683.7 63.0799 681.096 62.4165 677.051C62.2984 676.353 62.1802 675.654 62.0585 674.935C61.6882 672.713 61.3418 670.489 61 668.263C60.8884 667.557 60.7767 666.851 60.6617 666.123C59.8477 660.972 59.0878 655.814 58.3359 650.653C58.0963 649.027 57.8564 647.4 57.6161 645.773C56.9925 641.547 56.3722 637.32 55.7531 633.094C54.7562 626.289 53.7558 619.484 52.7521 612.681C52.4041 610.317 52.0587 607.952 51.7135 605.588C51.501 604.144 51.2884 602.7 51.0757 601.256C50.8915 599.998 50.7074 598.741 50.5177 597.445C50.1184 594.99 49.6234 592.664 49 590.263C48.8563 591.389 48.7126 592.516 48.5646 593.677C47.2084 604.302 45.8406 614.925 44.4616 625.547C43.7531 631.007 43.0485 636.468 42.3533 641.931C41.682 647.203 41.0001 652.475 40.3108 657.745C40.0499 659.755 39.7928 661.765 39.5395 663.776C39.1839 666.594 38.8146 669.411 38.4421 672.228C38.3407 673.057 38.2393 673.887 38.1348 674.741C37.3286 680.678 36.0453 685.371 31.5 689.575C27.5746 692.225 24.6479 692.383 20.0195 692.36C18.8562 692.357 17.6928 692.354 16.4941 692.351C15.2792 692.342 14.0643 692.334 12.8125 692.325C11.586 692.321 10.3594 692.316 9.0957 692.312C6.06375 692.3 3.03191 692.282 0 692.263C2.7375 679.636 5.72041 667.087 8.87891 654.56C9.33685 652.739 9.79477 650.918 10.2527 649.097C11.2029 645.322 12.1554 641.547 13.1091 637.773C14.3283 632.946 15.5384 628.118 16.7467 623.288C17.6848 619.545 18.6292 615.803 19.5753 612.062C20.0245 610.281 20.4714 608.5 20.916 606.718C21.5358 604.236 22.1644 601.757 22.7952 599.277C23.0641 598.188 23.0641 598.188 23.3385 597.077C25.098 590.235 27.0337 585.29 33 581.263C38.2297 579.519 43.7762 580.036 49.25 580.013Z" fill="#EDBD72"/>
<path d="M443 580.263C472.37 580.263 501.74 580.263 532 580.263C532 602.89 532 602.89 526.957 608.56C522.581 611.08 518.638 610.695 513.688 610.513C512.756 610.495 511.825 610.477 510.865 610.458C508.576 610.411 506.288 610.345 504 610.263C504.007 611.124 504.013 611.986 504.02 612.873C504.08 621.009 504.126 629.145 504.155 637.281C504.171 641.463 504.192 645.645 504.226 649.827C504.259 653.867 504.277 657.906 504.285 661.946C504.29 663.484 504.301 665.021 504.317 666.559C504.339 668.72 504.342 670.881 504.341 673.042C504.347 674.27 504.354 675.498 504.361 676.763C503.82 682.01 502.408 685.925 498.5 689.638C489.557 695.451 482.723 692.263 470 692.263C470 665.203 470 638.143 470 610.263C461.09 610.263 452.18 610.263 443 610.263C443 600.363 443 590.463 443 580.263Z" fill="#EDBD72"/>
<path d="M397.52 580.068C399.052 580.077 399.052 580.077 400.615 580.087C401.67 580.104 402.725 580.121 403.813 580.138C404.887 580.147 405.961 580.156 407.068 580.165C409.712 580.189 412.356 580.222 415 580.263C415.116 593.719 415.205 607.175 415.259 620.632C415.285 626.88 415.321 633.128 415.377 639.377C415.432 645.407 415.461 651.436 415.474 657.467C415.484 659.767 415.502 662.068 415.529 664.368C415.565 667.591 415.57 670.812 415.568 674.035C415.586 674.986 415.604 675.937 415.622 676.916C415.589 681.2 415.447 684.308 412.777 687.777C408.552 691.559 405.09 692.521 399.48 692.458C398.459 692.452 397.437 692.445 396.385 692.439C394.802 692.413 394.802 692.413 393.188 692.388C392.113 692.379 391.039 692.37 389.932 692.36C387.288 692.337 384.644 692.304 382 692.263C381.884 678.807 381.795 665.351 381.741 651.894C381.715 645.645 381.679 639.397 381.623 633.149C381.569 627.119 381.539 621.089 381.526 615.059C381.516 612.758 381.498 610.458 381.471 608.158C381.435 604.935 381.43 601.714 381.432 598.491C381.414 597.54 381.396 596.589 381.378 595.609C381.411 591.326 381.553 588.217 384.223 584.749C388.448 580.967 391.91 580.005 397.52 580.068Z" fill="#EDBD72"/>
<path d="M386 731.263C389.562 732.95 389.562 732.95 392 735.263C392.742 735.964 393.485 736.665 394.25 737.388C398.45 744.288 398.749 752.504 397 760.263C395.153 765.567 392.817 769.175 388 772.263C382.63 774.053 376.238 774.267 370.797 772.579C366.159 770.149 363.065 766.466 361.414 761.501C359.976 753.726 359.778 745.105 364 738.263C370.468 730.799 376.412 730.295 386 731.263ZM374.312 739.638C370.701 743.737 370.814 746.081 370.75 751.513C370.724 752.817 370.698 754.122 370.672 755.466C371.02 759.496 371.838 761.868 374 765.263C376.797 767.001 376.797 767.001 380 767.263C383.564 765.723 384.828 764.52 387 761.263C388.269 754.355 388.584 747.839 386 741.263C383.777 738.682 383.777 738.682 381 737.263C376.902 736.821 376.902 736.821 374.312 739.638Z" fill="#EDBD72"/>
<path d="M216 731.263C219.3 731.263 222.6 731.263 226 731.263C226.025 732.222 226.05 733.18 226.076 734.168C226.17 737.721 226.27 741.273 226.372 744.825C226.416 746.363 226.457 747.901 226.497 749.44C226.555 751.649 226.619 753.858 226.684 756.067C226.7 756.757 226.717 757.447 226.734 758.157C226.808 761.834 226.808 761.834 228 765.263C231.284 766.213 232.697 766.364 236 765.263C237.472 762.319 237.238 759.3 237.316 756.067C237.337 755.36 237.358 754.652 237.379 753.924C237.445 751.662 237.504 749.4 237.563 747.138C237.606 745.605 237.649 744.073 237.693 742.54C237.801 738.781 237.902 735.022 238 731.263C241.3 731.263 244.6 731.263 248 731.263C248.1 735.692 248.172 740.12 248.22 744.55C248.24 746.054 248.267 747.559 248.302 749.063C248.351 751.235 248.373 753.406 248.391 755.579C248.412 756.883 248.433 758.187 248.454 759.531C247.891 764.162 246.607 766.422 244 770.263C238.754 774.329 232.344 774.011 226 773.263C222.862 772.338 221.62 771.436 219 769.263C216.368 764.227 215.635 760.559 215.707 754.798C215.711 754.12 215.716 753.442 215.72 752.743C215.737 750.603 215.774 748.465 215.813 746.325C215.828 744.864 215.841 743.402 215.854 741.94C215.886 738.381 215.938 734.822 216 731.263Z" fill="#EDBD72"/>
<path d="M273 732.263C292 732.263 292 732.263 300 736.263C305.531 741.935 305.301 747.369 305.207 754.997C304.883 760.105 304.172 764.214 300.348 767.821C291.369 774.522 286.352 772.263 273 772.263C273 759.063 273 745.863 273 732.263ZM282 738.263C282 747.503 282 756.743 282 766.263C289.463 766.034 289.463 766.034 292.438 763.325C296.433 758.051 295.49 751.615 295 745.263C294.164 742.049 293.646 741.521 291 739.263C288.03 738.933 285.06 738.603 282 738.263Z" fill="#EDBD72"/>
<path d="M139 731.263C141.841 732.301 143.573 733.414 146 735.263C144.02 738.233 144.02 738.233 142 741.263C141.319 740.953 140.639 740.644 139.938 740.325C136.606 739.12 133.523 738.595 130 738.263C129.01 738.758 129.01 738.758 128 739.263C128 740.913 128 742.563 128 744.263C128.964 744.65 129.928 745.036 130.922 745.435C132.198 745.96 133.474 746.486 134.75 747.013C135.384 747.266 136.018 747.518 136.672 747.778C140.539 749.39 143.416 750.93 146 754.263C147.446 758.609 147.322 762.347 145.812 766.638C143.278 770.308 141.211 771.859 137 773.263C128.889 773.94 122.949 773.623 116 769.263C116 766.263 116 766.263 117.25 764.513C117.827 764.1 118.405 763.688 119 763.263C120.863 763.614 120.863 763.614 123 764.263C129.426 766.185 129.426 766.185 136 765.263C136 763.283 136 761.303 136 759.263C134.845 758.685 133.69 758.108 132.5 757.513C131.411 756.962 131.411 756.962 130.301 756.4C128.812 755.664 127.31 754.956 125.793 754.282C122.546 752.807 120.359 751.678 118 748.95C116.339 744.486 116.293 740.899 118.188 736.513C123.614 729.776 131.019 730.393 139 731.263Z" fill="#EDBD72"/>
<path d="M165 732.263C175.23 732.263 185.46 732.263 196 732.263C196 734.243 196 736.223 196 738.263C192.37 738.263 188.74 738.263 185 738.263C185 749.483 185 760.703 185 772.263C182.03 772.263 179.06 772.263 176 772.263C176 761.043 176 749.823 176 738.263C172.37 738.263 168.74 738.263 165 738.263C165 736.283 165 734.303 165 732.263Z" fill="#EDBD72"/>
<path d="M328 731.263C330.97 731.263 333.94 731.263 337 731.263C337 744.793 337 758.323 337 772.263C334.03 772.263 331.06 772.263 328 772.263C328 758.733 328 745.203 328 731.263Z" fill="#EDBD72"/>
</svg>
