<svg width="532" height="775" viewBox="0 0 532 775" fill="none" xmlns="http://www.w3.org/2000/svg">
<path d="M346 285C346.904 285.609 346.904 285.609 347.826 286.229C356.109 291.862 363.858 298 371.393 304.598C372.502 305.566 373.619 306.525 374.741 307.476C380.546 312.442 385.965 317.779 391.363 323.178C392.926 324.739 394.497 326.291 396.068 327.844C402.498 334.238 408.365 340.883 414 348C414.976 349.174 415.956 350.345 416.941 351.512C429.887 367.088 441.03 384.382 451 402C451.437 402.769 451.874 403.537 452.324 404.329C472.114 439.341 486.782 475.793 499 514C499.333 515 499.665 516 500.008 517.031C500.284 517.886 500.56 518.74 500.844 519.621C501.187 520.662 501.187 520.662 501.537 521.724C502.168 524.827 502.027 527.842 502 531C471.587 531.046 441.174 531.081 410.761 531.102C407.173 531.105 403.586 531.107 399.998 531.11C398.927 531.111 398.927 531.111 397.834 531.111C386.257 531.12 374.68 531.136 363.103 531.154C351.231 531.173 339.359 531.184 327.487 531.188C320.816 531.191 314.145 531.197 307.473 531.211C301.201 531.225 294.929 531.229 288.656 531.226C286.348 531.227 284.039 531.231 281.731 531.238C278.592 531.248 275.453 531.246 272.314 531.241C270.928 531.249 270.928 531.249 269.514 531.258C263.228 531.228 263.228 531.228 261 529C260.719 526.513 260.556 524.12 260.473 521.625C260.404 520.08 260.335 518.535 260.267 516.991C260.217 515.77 260.217 515.77 260.167 514.525C256.871 434.977 234.229 352.667 174 297C153.914 279.233 131.095 267.298 107 256C107.33 255.34 107.66 254.68 108 254C112.617 252.545 117.393 251.641 122.125 250.625C122.835 250.47 123.545 250.316 124.277 250.156C200.069 233.766 280.524 240.811 346 285Z" fill="#1C5471"/>
<path d="M18.1876 291.688C19.2298 291.756 19.2298 291.756 20.293 291.825C40.7926 293.202 60.4375 296.631 80.0001 303C80.7107 303.229 81.4213 303.458 82.1534 303.694C127.091 318.502 159.154 352.464 180.07 393.859C198.872 432.346 206.952 477.214 207.125 519.812C207.132 521.293 207.132 521.293 207.139 522.803C207.137 523.72 207.135 524.637 207.133 525.582C207.132 526.409 207.131 527.237 207.129 528.089C207 530 207 530 206 531C203.372 531.1 200.77 531.134 198.142 531.127C196.892 531.129 196.892 531.129 195.617 531.132C192.803 531.136 189.99 531.133 187.176 531.129C185.168 531.131 183.159 531.133 181.151 531.135C175.68 531.139 170.209 531.137 164.738 531.134C159.026 531.132 153.315 531.134 147.603 531.136C138.009 531.138 128.415 531.135 118.821 531.13C107.712 531.125 96.6032 531.127 85.4941 531.132C75.9748 531.137 66.4555 531.137 56.9362 531.135C51.2426 531.133 45.5489 531.133 39.8552 531.136C34.5037 531.139 29.1523 531.137 23.8008 531.131C21.8307 531.13 19.8606 531.13 17.8904 531.133C15.213 531.135 12.5357 531.132 9.85825 531.127C9.06809 531.129 8.27793 531.131 7.46383 531.134C2.11424 531.114 2.11424 531.114 1.0001 530C0.902064 526.941 0.870186 523.904 0.87984 520.844C0.878986 519.872 0.878133 518.899 0.877252 517.897C0.875594 514.611 0.881123 511.325 0.88657 508.039C0.886851 505.694 0.886694 503.349 0.886127 501.004C0.885839 494.616 0.891737 488.228 0.8987 481.839C0.904301 475.846 0.905323 469.854 0.906353 463.861C0.908543 451.987 0.915205 440.113 0.924656 428.24C0.933829 416.703 0.94091 405.166 0.945163 393.63C0.945426 392.919 0.945688 392.208 0.945959 391.476C0.947264 387.911 0.948528 384.346 0.949772 380.781C0.960145 351.188 0.977838 321.594 1.0001 292C6.49429 290.169 12.4654 291.309 18.1876 291.688Z" fill="#1C5471"/>
<path d="M166.594 0.75046C168.26 0.750786 168.26 0.750786 169.959 0.751118C171.238 0.74652 172.516 0.741921 173.833 0.737183C175.265 0.742198 176.697 0.747401 178.129 0.752769C179.639 0.751182 181.15 0.74872 182.661 0.745453C186.827 0.739013 190.994 0.745127 195.16 0.753217C199.648 0.759774 204.135 0.75485 208.622 0.751335C217.419 0.746284 226.216 0.751946 235.012 0.761185C245.246 0.771549 255.479 0.771499 265.712 0.771013C283.964 0.770512 302.216 0.779685 320.468 0.794197C338.199 0.808287 355.931 0.815367 373.662 0.814705C375.301 0.814645 375.301 0.814645 376.972 0.814584C378.607 0.814523 378.607 0.814523 380.276 0.814461C400.433 0.813772 420.59 0.819656 440.748 0.828614C447.89 0.831637 455.032 0.832695 462.174 0.833147C470.87 0.833827 479.567 0.838271 488.264 0.84748C492.705 0.852111 497.147 0.855138 501.588 0.853885C505.648 0.852796 509.707 0.856273 513.766 0.863534C515.241 0.865358 516.716 0.865467 518.191 0.863767C520.183 0.861723 522.175 0.866338 524.167 0.871373C525.277 0.872077 526.387 0.872782 527.531 0.873507C530 1.00001 530 1.00001 531 2.00001C531.096 3.55621 531.122 5.11677 531.12 6.67593C531.122 8.19254 531.122 8.19254 531.124 9.73978C531.121 10.8583 531.117 11.9768 531.114 13.1292C531.114 14.2997 531.114 15.4703 531.114 16.6764C531.113 19.8952 531.108 23.114 531.101 26.3329C531.095 29.6935 531.095 33.0541 531.093 36.4147C531.09 42.7824 531.082 49.1502 531.072 55.5179C531.061 62.7657 531.055 70.0135 531.05 77.2612C531.04 92.1742 531.022 107.087 531 122C526.32 121.37 522.067 120.519 517.582 119.031C516.346 118.629 515.111 118.228 513.838 117.813C512.857 117.493 512.857 117.493 511.856 117.165C429.123 90.2408 339.187 80.4104 119.026 137.777C111.031 141.859 103.198 146.172 95.5061 150.801C90.1816 154 90.1816 154 88 154C88.6262 149.859 90.009 146.607 91.8782 142.869C92.1757 142.27 92.4732 141.671 92.7798 141.054C93.7752 139.054 94.779 137.058 95.783 135.062C96.4996 133.626 97.2157 132.19 97.9313 130.754C99.8741 126.859 101.824 122.968 103.776 119.077C105.817 115.007 107.852 110.933 109.887 106.86C113.306 100.023 116.729 93.1882 120.155 86.3547C124.118 78.4489 128.074 70.5395 132.027 62.6282C135.828 55.0215 139.633 47.417 143.44 39.8136C145.061 36.5755 146.681 33.3367 148.3 30.0972C150.204 26.2861 152.113 22.477 154.025 18.6694C154.727 17.2696 155.427 15.8691 156.127 14.4679C157.079 12.5599 158.036 10.6545 158.995 8.74959C159.53 7.68128 160.065 6.61296 160.617 5.51227C163.051 1.0913 163.051 1.0913 166.594 0.75046Z" fill="#1C5471"/>
<path d="M315.586 141.797C316.834 141.79 318.081 141.783 319.367 141.775C323.37 141.758 327.372 141.751 331.375 141.75C332.4 141.75 332.4 141.75 333.445 141.749C354.116 141.748 374.503 142.024 395 145C396.46 145.206 397.92 145.412 399.379 145.618C438.361 151.192 476.078 160.695 513.312 173.437C515.127 174.057 515.127 174.057 516.979 174.689C518.654 175.274 518.654 175.274 520.363 175.871C521.336 176.211 522.308 176.55 523.31 176.9C524.198 177.263 525.085 177.626 526 178C526.868 178.307 527.736 178.613 528.631 178.929C531 181 531 181 531.457 182.982C531.636 185.743 531.641 188.464 531.601 191.231C531.606 192.296 531.61 193.36 531.614 194.456C531.622 198.041 531.595 201.624 531.568 205.208C531.566 207.77 531.567 210.332 531.57 212.894C531.571 218.419 531.557 223.943 531.529 229.468C531.488 237.456 531.475 245.444 531.469 253.432C531.458 266.392 531.424 279.351 531.377 292.31C531.331 304.9 531.296 317.491 531.275 330.081C531.273 330.857 531.272 331.632 531.271 332.432C531.264 336.324 531.258 340.216 531.252 344.108C531.2 376.405 531.112 408.703 531 441C528.345 438.473 527.005 436.229 525.504 432.863C525.034 431.823 524.565 430.784 524.081 429.712C523.58 428.59 523.079 427.468 522.562 426.312C521.481 423.935 520.396 421.559 519.309 419.184C519.032 418.58 518.756 417.977 518.472 417.355C510.027 398.955 500.497 381.307 490 364C489.219 362.71 489.219 362.71 488.421 361.394C477.573 343.599 465.387 326.963 452 311C451.464 310.36 450.928 309.72 450.376 309.06C445.31 303.025 440.249 297.03 434.562 291.562C432.829 289.829 431.268 287.998 429.688 286.125C426.287 282.186 422.551 278.768 418.645 275.336C416.911 273.804 415.198 272.248 413.512 270.664C405.483 263.135 396.826 256.559 388 250C387.403 249.551 386.806 249.102 386.191 248.64C375.951 240.957 365.104 234.357 354 228C352.854 227.342 352.854 227.342 351.685 226.671C314.099 205.37 271.773 194.25 229 190C227.757 189.868 226.515 189.737 225.234 189.602C197.899 187.249 170.023 189.002 142.938 193.034C138.922 193.632 135.075 194.185 131 194C134.467 190.055 138.451 187.796 143 185.312C143.795 184.877 144.591 184.441 145.41 183.992C196.74 156.32 257.359 142.018 315.586 141.797Z" fill="#1C5471"/>
<path d="M8.53394 0.875571C9.47477 0.879166 10.4156 0.882762 11.3849 0.886466C12.8628 0.886247 12.8628 0.886247 14.3706 0.886023C17.6442 0.886723 20.9177 0.894517 24.1913 0.902335C26.4544 0.904199 28.7174 0.905623 30.9804 0.906623C36.9497 0.910449 42.919 0.920281 48.8884 0.931327C54.9744 0.941538 61.0604 0.94612 67.1464 0.951163C79.0976 0.961903 91.0488 0.979336 103 0.999991C97.0377 13.7057 90.9125 26.3166 84.6247 38.864C83.7266 40.6598 82.8288 42.4557 81.9311 44.2517C79.5265 49.0612 77.1194 53.8695 74.7118 58.6776C72.184 63.727 69.6584 68.7775 67.1326 73.8279C62.364 83.3621 57.5934 92.8952 52.8219 102.428C47.3837 113.293 41.9478 124.16 36.5121 135.026C25.3439 157.352 14.1729 179.676 2.99993 202C2.33993 202 1.67993 202 0.999931 202C0.976605 175.94 0.958953 149.881 0.948119 123.822C0.942955 111.723 0.935911 99.6236 0.924491 87.5247C0.914547 76.9833 0.908078 66.442 0.905842 55.9007C0.904535 50.3154 0.901447 44.7302 0.894201 39.1449C0.887444 33.8944 0.885313 28.6439 0.886823 23.3934C0.886547 21.4603 0.88454 19.5273 0.880725 17.5943C0.875793 14.9672 0.876931 12.3401 0.879676 9.71302C0.876764 8.93774 0.873851 8.16247 0.87085 7.3637C0.890502 0.467404 1.75112 0.886525 8.53394 0.875571Z" fill="#1C5471"/>
<path d="M135 581C203.885 581 203.885 581 215.57 592.191C223.315 601.989 223.976 613.014 223 625C220.989 635.518 213 641.633 205 648C205.468 648.77 205.936 649.539 206.418 650.332C210.54 657.116 214.66 663.901 218.776 670.688C220.889 674.172 223.008 677.652 225.133 681.129C225.943 682.461 226.753 683.793 227.562 685.125C228.244 686.241 228.926 687.358 229.629 688.508C231 691 231 691 231 693C226.553 693.074 222.106 693.129 217.658 693.165C216.147 693.18 214.635 693.2 213.125 693.226C210.945 693.263 208.766 693.28 206.586 693.293C205.277 693.309 203.968 693.324 202.619 693.341C197.492 692.858 194.374 691.455 190.834 687.706C188.859 684.792 187.235 681.855 185.652 678.711C185.354 678.126 185.056 677.541 184.749 676.938C183.487 674.459 182.238 671.973 180.988 669.487C180.068 667.664 179.142 665.843 178.215 664.023C177.669 662.94 177.124 661.856 176.562 660.74C174.41 656.965 173.139 655.38 169 654C168.67 666.87 168.34 679.74 168 693C157.11 693 146.22 693 135 693C135 656.04 135 619.08 135 581ZM168 605C168 613.25 168 621.5 168 630C170.207 630.083 172.414 630.165 174.688 630.25C175.929 630.296 177.17 630.343 178.449 630.391C182.577 629.936 184.1 628.9 187 626C189.356 621.961 189.735 617.58 189 613C186.915 608.978 185.256 606.574 181 605C177.721 604.759 177.721 604.759 174.25 604.875C172.188 604.916 170.125 604.957 168 605Z" fill="#1C5471"/>
<path d="M247 581C251.354 580.913 255.708 580.859 260.062 580.813C261.292 580.787 262.521 580.762 263.787 580.736C275.807 580.639 275.807 580.639 281 584C285.009 588.906 285.913 593.228 286.739 599.31C286.876 600.228 287.014 601.146 287.155 602.091C287.602 605.108 288.028 608.128 288.453 611.149C288.76 613.248 289.068 615.347 289.378 617.445C290.187 622.957 290.978 628.472 291.765 633.987C292.572 639.619 293.396 645.249 294.219 650.879C295.829 661.917 297.421 672.958 299 684C299.144 682.905 299.287 681.81 299.435 680.682C300.794 670.338 302.162 659.995 303.538 649.654C304.246 644.338 304.95 639.021 305.647 633.704C306.32 628.568 307.002 623.433 307.689 618.298C307.949 616.344 308.207 614.389 308.46 612.434C308.818 609.685 309.187 606.939 309.558 604.192C309.659 603.392 309.761 602.592 309.865 601.768C310.763 595.265 311.74 588.318 316.438 583.5C320.609 581.058 324.063 580.878 328.859 580.902C329.974 580.906 331.089 580.909 332.238 580.912C333.397 580.921 334.556 580.929 335.75 580.938C336.924 580.942 338.099 580.947 339.309 580.951C342.206 580.963 345.103 580.979 348 581C347.367 587 346.222 592.688 344.747 598.534C344.519 599.452 344.291 600.37 344.057 601.316C343.307 604.329 342.551 607.341 341.793 610.352C341.266 612.456 340.739 614.56 340.212 616.664C339.108 621.064 338 625.464 336.89 629.862C335.47 635.493 334.065 641.127 332.664 646.762C331.582 651.105 330.489 655.446 329.393 659.785C328.87 661.861 328.352 663.938 327.837 666.017C327.116 668.922 326.381 671.824 325.641 674.725C325.329 676.006 325.329 676.006 325.01 677.314C323.444 683.366 321.587 688.352 316.094 691.852C310.487 693.887 304.377 693.432 298.5 693.375C297.302 693.387 296.105 693.398 294.871 693.41C283.119 693.371 283.119 693.371 278 690C274.481 684.702 272.766 679.501 271.175 673.38C270.922 672.441 270.67 671.502 270.41 670.535C269.583 667.45 268.77 664.362 267.957 661.274C267.383 659.121 266.808 656.968 266.233 654.815C264.723 649.161 263.226 643.503 261.731 637.845C260.508 633.225 259.277 628.607 258.045 623.99C256.575 618.481 255.109 612.971 253.645 607.461C253.365 606.411 253.086 605.361 252.799 604.279C252.009 601.307 251.223 598.334 250.437 595.361C250.204 594.483 249.97 593.605 249.73 592.7C248.706 588.816 247.718 584.955 247 581Z" fill="#1C5471"/>
<path d="M49.25 580.75C50.4656 580.729 51.6812 580.709 52.9336 580.688C64.77 580.636 64.77 580.636 70 584C73.7364 588.738 75.2298 593.334 76.7173 599.06C76.9585 599.951 77.1997 600.843 77.4482 601.762C78.2393 604.698 79.0143 607.638 79.7891 610.578C80.3382 612.631 80.8882 614.683 81.4391 616.736C82.5905 621.034 83.7347 625.335 84.873 629.637C86.327 635.132 87.7932 640.623 89.2642 646.112C90.6726 651.371 92.0748 656.631 93.4766 661.891C93.742 662.885 94.0074 663.879 94.2809 664.903C95.0378 667.742 95.7903 670.582 96.5415 673.423C96.8719 674.659 96.8719 674.659 97.2091 675.921C98.6974 681.575 99.9105 687.256 101 693C96.6251 693.087 92.2505 693.141 87.875 693.188C86.6375 693.213 85.4 693.238 84.125 693.264C82.9262 693.273 81.7273 693.283 80.4922 693.293C79.3925 693.309 78.2927 693.324 77.1597 693.341C72.3855 692.826 69.2519 691.302 65.9212 687.839C63.6192 684.437 63.0799 681.833 62.4165 677.788C62.2984 677.09 62.1802 676.392 62.0585 675.672C61.6882 673.451 61.3418 671.226 61 669C60.8884 668.294 60.7767 667.588 60.6617 666.86C59.8477 661.709 59.0878 656.551 58.3359 651.391C58.0963 649.764 57.8564 648.137 57.6161 646.511C56.9925 642.284 56.3722 638.058 55.7531 633.831C54.7562 627.026 53.7558 620.222 52.7521 613.418C52.4041 611.054 52.0587 608.69 51.7135 606.325C51.501 604.881 51.2884 603.437 51.0757 601.993C50.8915 600.736 50.7074 599.478 50.5177 598.183C50.1184 595.728 49.6234 593.401 49 591C48.8563 592.127 48.7126 593.253 48.5646 594.414C47.2084 605.039 45.8406 615.662 44.4616 626.284C43.7531 631.745 43.0485 637.206 42.3533 642.668C41.682 647.941 41.0001 653.212 40.3108 658.482C40.0499 660.492 39.7928 662.502 39.5395 664.513C39.1839 667.332 38.8146 670.149 38.4421 672.965C38.3407 673.795 38.2393 674.624 38.1348 675.479C37.3286 681.416 36.0453 686.108 31.5 690.313C27.5746 692.962 24.6479 693.12 20.0195 693.098C18.8562 693.094 17.6928 693.091 16.4941 693.088C15.2792 693.08 14.0643 693.071 12.8125 693.063C11.586 693.058 10.3594 693.053 9.0957 693.049C6.06375 693.037 3.03191 693.02 0 693C2.7375 680.373 5.72041 667.825 8.87891 655.297C9.33685 653.476 9.79477 651.655 10.2527 649.835C11.2029 646.059 12.1554 642.285 13.1091 638.51C14.3283 633.684 15.5384 628.855 16.7467 624.026C17.6848 620.282 18.6292 616.541 19.5753 612.799C20.0245 611.019 20.4714 609.237 20.916 607.455C21.5358 604.973 22.1644 602.494 22.7952 600.015C23.0641 598.925 23.0641 598.925 23.3385 597.814C25.098 590.972 27.0337 586.027 33 582C38.2297 580.257 43.7762 580.773 49.25 580.75Z" fill="#1C5471"/>
<path d="M443 581C472.37 581 501.74 581 532 581C532 603.627 532 603.627 526.957 609.297C522.581 611.817 518.638 611.432 513.688 611.25C512.756 611.232 511.825 611.214 510.865 611.195C508.576 611.148 506.288 611.083 504 611C504.007 611.861 504.013 612.723 504.02 613.61C504.08 621.746 504.126 629.882 504.155 638.018C504.171 642.2 504.192 646.382 504.226 650.565C504.259 654.604 504.277 658.644 504.285 662.683C504.29 664.221 504.301 665.759 504.317 667.296C504.339 669.458 504.342 671.618 504.341 673.78C504.347 675.008 504.354 676.236 504.361 677.501C503.82 682.747 502.408 686.662 498.5 690.375C489.557 696.188 482.723 693 470 693C470 665.94 470 638.88 470 611C461.09 611 452.18 611 443 611C443 601.1 443 591.2 443 581Z" fill="#1C5471"/>
<path d="M397.52 580.805C399.052 580.814 399.052 580.814 400.615 580.824C401.67 580.841 402.725 580.858 403.813 580.875C404.887 580.884 405.961 580.893 407.068 580.902C409.712 580.926 412.356 580.959 415 581C415.116 594.456 415.205 607.912 415.259 621.369C415.285 627.617 415.321 633.866 415.377 640.114C415.432 646.144 415.461 652.174 415.474 658.204C415.484 660.504 415.502 662.805 415.529 665.105C415.565 668.328 415.57 671.549 415.568 674.772C415.586 675.723 415.604 676.674 415.622 677.654C415.589 681.937 415.447 685.046 412.777 688.514C408.552 692.296 405.09 693.258 399.48 693.195C398.459 693.189 397.437 693.182 396.385 693.176C394.802 693.151 394.802 693.151 393.188 693.125C392.113 693.116 391.039 693.107 389.932 693.098C387.288 693.074 384.644 693.041 382 693C381.884 679.544 381.795 666.088 381.741 652.631C381.715 646.383 381.679 640.135 381.623 633.886C381.569 627.856 381.539 621.826 381.526 615.796C381.516 613.496 381.498 611.195 381.471 608.895C381.435 605.672 381.43 602.451 381.432 599.228C381.414 598.277 381.396 597.326 381.378 596.347C381.411 592.063 381.553 588.955 384.223 585.486C388.448 581.704 391.91 580.742 397.52 580.805Z" fill="#1C5471"/>
<path d="M386 732C389.562 733.687 389.562 733.687 392 736C392.742 736.701 393.485 737.402 394.25 738.125C398.45 745.026 398.749 753.241 397 761C395.153 766.305 392.817 769.912 388 773C382.63 774.79 376.238 775.004 370.797 773.316C366.159 770.887 363.065 767.203 361.414 762.238C359.976 754.463 359.778 745.843 364 739C370.468 731.537 376.412 731.033 386 732ZM374.312 740.375C370.701 744.474 370.814 746.818 370.75 752.25C370.724 753.554 370.698 754.859 370.672 756.203C371.02 760.234 371.838 762.605 374 766C376.797 767.738 376.797 767.738 380 768C383.564 766.461 384.828 765.257 387 762C388.269 755.092 388.584 748.577 386 742C383.777 739.42 383.777 739.42 381 738C376.902 737.558 376.902 737.558 374.312 740.375Z" fill="#1C5471"/>
<path d="M216 732C219.3 732 222.6 732 226 732C226.025 732.959 226.05 733.918 226.076 734.906C226.17 738.458 226.27 742.01 226.372 745.562C226.416 747.1 226.457 748.639 226.497 750.177C226.555 752.387 226.619 754.596 226.684 756.805C226.7 757.494 226.717 758.184 226.734 758.895C226.808 762.571 226.808 762.571 228 766C231.284 766.951 232.697 767.101 236 766C237.472 763.056 237.238 760.037 237.316 756.805C237.337 756.097 237.358 755.39 237.379 754.661C237.445 752.399 237.504 750.137 237.563 747.875C237.606 746.342 237.649 744.81 237.693 743.277C237.801 739.518 237.902 735.759 238 732C241.3 732 244.6 732 248 732C248.1 736.429 248.172 740.858 248.22 745.287C248.24 746.792 248.267 748.296 248.302 749.8C248.351 751.972 248.373 754.144 248.391 756.316C248.412 757.62 248.433 758.924 248.454 760.268C247.891 764.899 246.607 767.159 244 771C238.754 775.066 232.344 774.748 226 774C222.862 773.075 221.62 772.174 219 770C216.368 764.964 215.635 761.296 215.707 755.535C215.711 754.857 215.716 754.179 215.72 753.48C215.737 751.34 215.774 749.202 215.813 747.062C215.828 745.601 215.841 744.139 215.854 742.678C215.886 739.118 215.938 735.559 216 732Z" fill="#1C5471"/>
<path d="M273 733C292 733 292 733 300 737C305.531 742.673 305.301 748.107 305.207 755.734C304.883 760.843 304.172 764.952 300.348 768.559C291.369 775.259 286.352 773 273 773C273 759.8 273 746.6 273 733ZM282 739C282 748.24 282 757.48 282 767C289.463 766.772 289.463 766.772 292.438 764.062C296.433 758.789 295.49 752.352 295 746C294.164 742.786 293.646 742.259 291 740C288.03 739.67 285.06 739.34 282 739Z" fill="#1C5471"/>
<path d="M139 732C141.841 733.038 143.573 734.151 146 736C144.02 738.97 144.02 738.97 142 742C141.319 741.691 140.639 741.381 139.938 741.062C136.606 739.857 133.523 739.332 130 739C129.01 739.495 129.01 739.495 128 740C128 741.65 128 743.3 128 745C128.964 745.387 129.928 745.773 130.922 746.172C132.198 746.697 133.474 747.223 134.75 747.75C135.384 748.003 136.018 748.255 136.672 748.516C140.539 750.127 143.416 751.667 146 755C147.446 759.346 147.322 763.084 145.812 767.375C143.278 771.045 141.211 772.596 137 774C128.889 774.677 122.949 774.36 116 770C116 767 116 767 117.25 765.25C117.827 764.837 118.405 764.425 119 764C120.863 764.351 120.863 764.351 123 765C129.426 766.922 129.426 766.922 136 766C136 764.02 136 762.04 136 760C134.845 759.422 133.69 758.845 132.5 758.25C131.411 757.699 131.411 757.699 130.301 757.137C128.812 756.401 127.31 755.693 125.793 755.019C122.546 753.544 120.359 752.415 118 749.687C116.339 745.223 116.293 741.637 118.188 737.25C123.614 730.513 131.019 731.13 139 732Z" fill="#1C5471"/>
<path d="M165 733C175.23 733 185.46 733 196 733C196 734.98 196 736.96 196 739C192.37 739 188.74 739 185 739C185 750.22 185 761.44 185 773C182.03 773 179.06 773 176 773C176 761.78 176 750.56 176 739C172.37 739 168.74 739 165 739C165 737.02 165 735.04 165 733Z" fill="#1C5471"/>
<path d="M328 732C330.97 732 333.94 732 337 732C337 745.53 337 759.06 337 773C334.03 773 331.06 773 328 773C328 759.47 328 745.94 328 732Z" fill="#1C5471"/>
</svg>
