<svg width="2013" height="521" viewBox="0 0 2013 521" fill="none" xmlns="http://www.w3.org/2000/svg">
<path d="M339.009 278.888C339.895 279.485 339.895 279.485 340.798 280.093C348.913 285.614 356.506 291.63 363.888 298.098C364.975 299.046 366.069 299.986 367.169 300.919C372.855 305.786 378.165 311.018 383.453 316.309C384.985 317.839 386.524 319.361 388.063 320.882C394.363 327.149 400.111 333.663 405.632 340.639C406.588 341.79 407.548 342.938 408.514 344.081C421.197 359.348 432.115 376.299 441.882 393.568C442.311 394.321 442.739 395.075 443.18 395.851C462.569 430.169 476.939 465.898 488.91 503.347C489.236 504.327 489.562 505.307 489.898 506.318C490.168 507.155 490.438 507.993 490.717 508.856C491.053 509.877 491.053 509.877 491.396 510.918C492.014 513.959 491.876 516.915 491.849 520.01C462.052 520.054 432.255 520.089 402.458 520.11C398.943 520.112 395.428 520.115 391.914 520.117C390.864 520.118 390.864 520.118 389.793 520.119C378.451 520.127 367.108 520.143 355.766 520.161C344.134 520.179 332.503 520.19 320.871 520.194C314.335 520.197 307.799 520.203 301.263 520.217C295.118 520.23 288.972 520.234 282.827 520.231C280.565 520.232 278.304 520.236 276.042 520.243C272.967 520.253 269.891 520.251 266.816 520.245C265.458 520.254 265.458 520.254 264.072 520.263C257.914 520.233 257.914 520.233 255.731 518.049C255.455 515.612 255.296 513.266 255.214 510.821C255.147 509.307 255.08 507.792 255.012 506.278C254.964 505.082 254.964 505.082 254.915 503.861C251.686 425.891 229.502 345.213 170.493 290.65C150.814 273.236 128.457 261.537 104.85 250.463C105.174 249.816 105.497 249.17 105.83 248.503C110.354 247.077 115.033 246.191 119.669 245.195C120.365 245.043 121.061 244.892 121.777 244.736C196.034 228.67 274.86 235.576 339.009 278.888Z" fill="white"/>
<path d="M17.837 285.443C18.858 285.51 18.858 285.51 19.8997 285.578C39.9841 286.928 59.2311 290.289 78.3974 296.531C79.0936 296.756 79.7898 296.98 80.5071 297.212C124.535 311.726 155.948 345.015 176.441 385.589C194.862 423.312 202.778 467.29 202.947 509.044C202.954 510.495 202.954 510.495 202.962 511.975C202.959 512.874 202.957 513.773 202.955 514.699C202.954 515.51 202.953 516.321 202.952 517.157C202.825 519.03 202.825 519.03 201.845 520.01C199.27 520.108 196.721 520.141 194.146 520.134C192.922 520.136 192.922 520.136 191.673 520.139C188.916 520.143 186.159 520.14 183.402 520.137C181.435 520.138 179.467 520.14 177.499 520.142C172.139 520.146 166.779 520.144 161.419 520.141C155.823 520.139 150.227 520.141 144.631 520.143C135.231 520.144 125.832 520.142 116.432 520.137C105.548 520.132 94.6642 520.134 83.7801 520.139C74.4536 520.144 65.1272 520.144 55.8007 520.142C50.2224 520.14 44.644 520.14 39.0657 520.143C33.8226 520.146 28.5795 520.144 23.3365 520.138C21.4062 520.137 19.476 520.138 17.5458 520.14C14.9226 520.142 12.2995 520.139 9.67633 520.134C8.90217 520.136 8.12802 520.139 7.33041 520.141C2.08918 520.122 2.08918 520.122 0.997601 519.03C0.901556 516.031 0.870323 513.054 0.879782 510.055C0.878945 509.102 0.878109 508.149 0.877246 507.166C0.875622 503.945 0.881038 500.725 0.886375 497.504C0.886651 495.205 0.886497 492.907 0.885941 490.609C0.885659 484.347 0.891438 478.086 0.89826 471.824C0.903747 465.95 0.904748 460.076 0.905757 454.202C0.907904 442.564 0.91443 430.926 0.923689 419.288C0.932677 407.98 0.939615 396.672 0.943782 385.364C0.944039 384.667 0.944296 383.97 0.944561 383.253C0.94584 379.759 0.947079 376.264 0.948297 372.77C0.95846 343.763 0.975795 314.756 0.997601 285.749C6.38051 283.954 12.2307 285.072 17.837 285.443Z" fill="white"/>
<path d="M163.237 0.275831C164.869 0.276151 164.869 0.276151 166.534 0.276477C167.787 0.271969 169.039 0.267462 170.33 0.262817C171.732 0.267734 173.135 0.272833 174.538 0.278095C176.018 0.276539 177.498 0.274126 178.979 0.270924C183.061 0.264612 187.143 0.270605 191.225 0.278534C195.621 0.284961 200.018 0.280134 204.415 0.276689C213.033 0.271738 221.651 0.277288 230.27 0.286344C240.296 0.296502 250.322 0.296454 260.348 0.295976C278.23 0.295485 296.112 0.304477 313.995 0.318701C331.367 0.332512 348.739 0.339452 366.111 0.338802C367.716 0.338743 367.716 0.338743 369.354 0.338683C370.956 0.338624 370.956 0.338624 372.591 0.338563C392.34 0.337888 412.089 0.343656 431.838 0.352436C438.835 0.355398 445.833 0.356435 452.83 0.356878C461.35 0.357546 469.871 0.361901 478.391 0.370927C482.743 0.375467 487.095 0.378433 491.446 0.377206C495.423 0.376138 499.4 0.379546 503.377 0.386663C504.822 0.388451 506.267 0.388558 507.713 0.386891C509.664 0.384888 511.616 0.389412 513.567 0.394346C514.655 0.395037 515.743 0.395727 516.864 0.396439C519.282 0.52043 519.282 0.52043 520.262 1.5006C520.356 3.02594 520.382 4.55555 520.38 6.08379C520.382 7.57032 520.382 7.57032 520.384 9.08688C520.38 10.1832 520.377 11.2795 520.373 12.409C520.373 13.5564 520.374 14.7038 520.374 15.8859C520.373 19.0409 520.368 22.1959 520.361 25.3509C520.355 28.6449 520.355 31.9388 520.354 35.2328C520.351 41.4742 520.342 47.7157 520.333 53.9572C520.322 61.0612 520.316 68.1653 520.311 75.2693C520.301 89.8865 520.284 104.504 520.262 119.121C515.677 118.503 511.51 117.669 507.116 116.211C505.905 115.817 504.695 115.423 503.447 115.017C502.487 114.703 502.487 114.703 501.506 114.382C420.449 87.9914 332.335 78.356 116.633 134.585C108.8 138.586 101.125 142.813 93.5894 147.35C88.3727 150.486 88.3727 150.486 86.2354 150.486C86.8489 146.427 88.2037 143.24 90.035 139.576C90.3265 138.989 90.618 138.402 90.9183 137.797C91.8935 135.836 92.8771 133.88 93.8607 131.924C94.5628 130.516 95.2643 129.109 95.9655 127.701C97.8689 123.883 99.7798 120.069 101.692 116.256C103.692 112.266 105.685 108.274 107.679 104.281C111.028 97.5797 114.382 90.8803 117.739 84.1825C121.622 76.4334 125.498 68.6809 129.371 60.9264C133.094 53.4706 136.822 46.0169 140.552 38.5643C142.141 35.3904 143.728 32.2158 145.314 29.0406C147.18 25.3051 149.05 21.5715 150.923 17.8394C151.611 16.4674 152.297 15.0947 152.982 13.7213C153.915 11.8511 154.853 9.98344 155.792 8.11633C156.317 7.0692 156.841 6.02207 157.381 4.94321C159.766 0.609911 159.766 0.609911 163.237 0.275831Z" fill="white"/>
<path d="M309.211 138.525C310.434 138.518 311.656 138.511 312.916 138.504C316.837 138.487 320.759 138.48 324.681 138.479C325.684 138.479 325.684 138.479 326.709 138.478C346.961 138.477 366.935 138.748 387.017 141.665C388.447 141.867 389.877 142.069 391.307 142.271C429.5 147.734 466.452 157.048 502.933 169.538C504.711 170.145 504.711 170.145 506.525 170.765C508.166 171.338 508.166 171.338 509.841 171.924C510.793 172.256 511.746 172.589 512.728 172.932C513.597 173.288 514.467 173.644 515.363 174.01C516.214 174.311 517.064 174.611 517.941 174.921C520.262 176.951 520.262 176.951 520.709 178.893C520.885 181.6 520.89 184.267 520.851 186.979C520.855 188.022 520.859 189.066 520.864 190.14C520.872 193.653 520.845 197.165 520.818 200.678C520.817 203.19 520.817 205.701 520.82 208.212C520.821 213.627 520.807 219.042 520.78 224.458C520.74 232.287 520.727 240.117 520.721 247.946C520.71 260.649 520.678 273.351 520.632 286.054C520.587 298.394 520.552 310.735 520.531 323.075C520.53 323.836 520.529 324.596 520.527 325.379C520.521 329.194 520.515 333.009 520.509 336.824C520.458 368.481 520.371 400.138 520.262 431.795C517.661 429.318 516.348 427.118 514.877 423.819C514.417 422.8 513.957 421.781 513.483 420.731C512.992 419.631 512.501 418.531 511.995 417.398C510.935 415.068 509.873 412.739 508.807 410.411C508.537 409.819 508.266 409.228 507.987 408.618C499.714 390.583 490.376 373.285 480.092 356.322C479.327 355.057 479.327 355.057 478.546 353.767C467.917 336.325 455.978 320.019 442.862 304.373C442.337 303.745 441.812 303.118 441.272 302.471C436.307 296.556 431.349 290.68 425.778 285.321C424.08 283.622 422.55 281.827 421.002 279.991C417.67 276.13 414.009 272.78 410.182 269.416C408.484 267.915 406.806 266.389 405.154 264.837C397.288 257.457 388.805 251.011 380.159 244.582C379.574 244.143 378.989 243.703 378.387 243.25C368.354 235.719 357.726 229.249 346.847 223.019C345.724 222.374 345.724 222.374 344.579 221.716C307.754 200.838 266.285 189.938 224.379 185.772C223.162 185.643 221.944 185.515 220.69 185.382C193.908 183.076 166.597 184.794 140.06 188.747C136.126 189.332 132.357 189.874 128.364 189.693C131.761 185.826 135.665 183.612 140.121 181.178C140.901 180.751 141.68 180.324 142.483 179.884C192.772 152.76 252.164 138.742 309.211 138.525Z" fill="white"/>
<path d="M8.37872 0.398452C9.30049 0.401976 10.2223 0.4055 11.172 0.409131C12.6199 0.408917 12.6199 0.408917 14.0971 0.408697C17.3044 0.409383 20.5117 0.417023 23.719 0.424686C25.9361 0.426513 28.1533 0.427908 30.3705 0.428888C36.2189 0.432639 42.0673 0.442275 47.9157 0.453102C53.8785 0.463111 59.8412 0.467602 65.804 0.472545C77.5131 0.483072 89.2221 0.50016 100.931 0.520405C95.0898 12.9741 89.0887 25.335 82.9282 37.6335C82.0483 39.3937 81.1687 41.154 80.2892 42.9143C77.9332 47.6285 75.5749 52.3414 73.2161 57.0542C70.7395 62.0034 68.2651 66.9538 65.7905 71.9041C61.1184 81.2492 56.4444 90.5932 51.7696 99.9369C46.4416 110.587 41.1158 121.238 35.7901 131.889C24.8482 153.772 13.9034 175.653 2.9568 197.534C2.31017 197.534 1.66354 197.534 0.997316 197.534C0.974463 171.992 0.957169 146.449 0.946554 120.906C0.941494 109.047 0.934593 97.1882 0.923405 85.3292C0.913662 74.9969 0.907324 64.6646 0.905134 54.3323C0.903853 48.8578 0.900827 43.3833 0.893728 37.9089C0.887108 32.7625 0.88502 27.6161 0.8865 22.4697C0.886229 20.575 0.884262 18.6803 0.880525 16.7856C0.875693 14.2106 0.876808 11.6357 0.879498 9.06064C0.876644 8.30074 0.87379 7.54084 0.87085 6.75791C0.890104 -0.00162022 1.73329 0.409189 8.37872 0.398452Z" fill="white"/>
<path d="M947.55 1.46375C1131.96 1.46375 1131.96 1.46375 1163.24 31.4925C1183.98 57.7819 1185.75 87.3626 1183.13 119.524C1177.75 147.747 1156.36 164.154 1134.94 181.238C1136.2 183.303 1137.45 185.368 1138.74 187.496C1149.78 205.697 1160.81 223.903 1171.82 242.115C1177.48 251.463 1183.15 260.801 1188.84 270.129C1191.01 273.703 1193.18 277.277 1195.35 280.852C1197.17 283.847 1199 286.842 1200.88 289.928C1204.55 296.615 1204.55 296.615 1204.55 301.982C1192.64 302.182 1180.74 302.327 1168.83 302.424C1164.78 302.464 1160.74 302.519 1156.69 302.589C1150.86 302.687 1145.03 302.732 1139.19 302.768C1135.69 302.81 1132.18 302.852 1128.57 302.896C1114.85 301.601 1106.5 297.837 1097.02 287.776C1091.73 279.959 1087.39 272.078 1083.15 263.641C1082.35 262.071 1081.55 260.502 1080.73 258.884C1077.35 252.232 1074.01 245.561 1070.66 238.893C1068.2 233.999 1065.72 229.116 1063.24 224.232C1061.78 221.324 1060.32 218.417 1058.81 215.421C1053.05 205.292 1049.65 201.039 1038.57 197.337C1037.69 231.87 1036.8 266.403 1035.89 301.982C1006.74 301.982 977.587 301.982 947.55 301.982C947.55 202.811 947.55 103.64 947.55 1.46375ZM1035.89 65.8605C1035.89 87.9968 1035.89 110.133 1035.89 132.94C1041.8 133.162 1047.71 133.383 1053.8 133.611C1057.12 133.736 1060.44 133.86 1063.87 133.989C1074.92 132.77 1078.99 129.989 1086.76 122.208C1093.06 111.37 1094.08 99.6146 1092.11 87.326C1086.53 76.5346 1082.09 70.0842 1070.7 65.8605C1061.92 65.2126 1061.92 65.2126 1052.62 65.5251C1047.1 65.6358 1041.58 65.7464 1035.89 65.8605Z" fill="white"/>
<path d="M1247.78 1.04088C1259.48 0.805866 1271.18 0.663544 1282.88 0.537602C1286.19 0.470131 1289.49 0.40266 1292.89 0.333144C1325.19 0.0722501 1325.19 0.0722504 1339.15 9.09338C1349.92 22.2621 1352.35 33.8618 1354.57 50.1881C1354.94 52.6514 1355.31 55.1147 1355.69 57.6526C1356.89 65.7513 1358.03 73.8571 1359.17 81.9643C1360 87.5986 1360.83 93.2325 1361.66 98.8658C1363.83 113.661 1365.96 128.463 1368.07 143.266C1370.24 158.384 1372.46 173.495 1374.67 188.607C1379 218.235 1383.27 247.87 1387.52 277.51C1387.9 274.571 1388.29 271.631 1388.69 268.603C1392.34 240.838 1396.01 213.077 1399.71 185.319C1401.61 171.05 1403.51 156.78 1405.38 142.507C1407.19 128.72 1409.02 114.937 1410.87 101.155C1411.57 95.9095 1412.26 90.6628 1412.94 85.4149C1413.9 78.0372 1414.89 70.664 1415.89 63.2911C1416.16 61.1441 1416.43 58.9972 1416.71 56.7852C1419.13 39.3311 1421.75 20.6836 1434.37 7.75129C1445.58 1.19738 1454.87 0.713075 1467.76 0.778758C1470.75 0.787408 1473.75 0.796058 1476.83 0.80497C1479.95 0.827461 1483.06 0.849951 1486.27 0.873123C1489.43 0.885233 1492.58 0.897343 1495.83 0.90982C1503.62 0.941432 1511.4 0.98558 1519.19 1.04088C1517.49 17.1459 1514.41 32.4138 1510.45 48.1042C1509.84 50.5686 1509.22 53.033 1508.59 55.572C1506.58 63.66 1504.55 71.7429 1502.51 79.8253C1501.09 85.473 1499.68 91.1208 1498.26 96.7687C1495.3 108.58 1492.32 120.388 1489.34 132.195C1485.52 147.309 1481.74 162.432 1477.98 177.558C1475.07 189.215 1472.13 200.865 1469.19 212.513C1467.78 218.086 1466.39 223.661 1465.01 229.239C1463.07 237.039 1461.09 244.827 1459.11 252.614C1458.27 256.054 1458.27 256.054 1457.41 259.562C1453.2 275.807 1448.21 289.19 1433.45 298.585C1418.38 304.048 1401.96 302.827 1386.17 302.674C1382.95 302.705 1379.74 302.736 1376.42 302.768C1344.84 302.663 1344.84 302.663 1331.08 293.615C1321.63 279.395 1317.02 265.432 1312.74 249.005C1312.07 246.484 1311.39 243.964 1310.69 241.367C1308.47 233.087 1306.28 224.798 1304.1 216.508C1302.55 210.729 1301.01 204.951 1299.46 199.173C1295.41 183.996 1291.38 168.81 1287.37 153.623C1284.08 141.222 1280.77 128.827 1277.46 116.432C1273.51 101.646 1269.57 86.8564 1265.64 72.0664C1264.89 69.2476 1264.14 66.4289 1263.36 63.5247C1261.24 55.547 1259.13 47.5677 1257.02 39.5877C1256.39 37.2309 1255.76 34.8741 1255.12 32.4458C1252.37 22.021 1249.71 11.6567 1247.78 1.04088Z" fill="white"/>
<path d="M717.216 0.459592C720.483 0.40419 723.75 0.348788 727.115 0.291708C758.922 0.153018 758.922 0.153018 772.976 9.1896C783.017 21.9173 787.03 34.263 791.027 49.642C791.675 52.0377 792.323 54.4335 792.991 56.9019C795.117 64.788 797.2 72.6848 799.282 80.5826C800.757 86.0967 802.235 91.6102 803.715 97.123C806.81 108.67 809.884 120.222 812.943 131.778C816.85 146.537 820.79 161.287 824.743 176.033C828.528 190.158 832.296 204.287 836.063 218.416C836.776 221.086 837.489 223.756 838.224 226.507C840.258 234.134 842.28 241.763 844.299 249.393C845.187 252.715 845.187 252.715 846.093 256.103C850.092 271.29 853.352 286.552 856.28 301.981C844.524 302.215 832.768 302.358 821.01 302.484C817.685 302.552 814.359 302.619 810.933 302.689C807.712 302.715 804.49 302.741 801.171 302.768C798.216 302.81 795.261 302.852 792.216 302.896C779.387 301.513 770.966 297.419 762.016 288.116C755.83 278.98 754.38 271.984 752.598 261.119C752.28 259.244 751.963 257.368 751.636 255.436C750.641 249.468 749.71 243.493 748.791 237.513C748.491 235.616 748.191 233.72 747.882 231.766C745.695 217.929 743.653 204.073 741.632 190.211C740.988 185.842 740.344 181.472 739.698 177.103C738.022 165.751 736.355 154.397 734.692 143.043C732.013 124.764 729.325 106.487 726.627 88.2109C725.692 81.8609 724.764 75.5099 723.836 69.1588C723.265 65.2798 722.694 61.4009 722.122 57.5221C721.628 54.1443 721.133 50.7666 720.623 47.2865C719.55 40.692 718.22 34.4421 716.545 27.9927C716.159 31.0193 715.772 34.0459 715.375 37.1642C711.73 65.7037 708.055 94.2391 704.349 122.771C702.445 137.439 700.552 152.108 698.683 166.781C696.88 180.944 695.047 195.103 693.195 209.26C692.494 214.659 691.803 220.059 691.122 225.46C690.167 233.032 689.174 240.598 688.173 248.164C687.901 250.392 687.628 252.62 687.348 254.915C685.181 270.863 681.733 283.468 669.518 294.762C658.97 301.879 651.105 302.304 638.668 302.243C635.542 302.234 632.415 302.226 629.194 302.217C625.93 302.194 622.665 302.172 619.301 302.149C616.005 302.137 612.709 302.124 609.313 302.112C601.166 302.08 593.018 302.034 584.871 301.981C592.227 268.063 600.243 234.356 608.731 200.704C609.961 195.813 611.192 190.922 612.422 186.032C614.976 175.891 617.535 165.751 620.098 155.613C623.374 142.648 626.626 129.677 629.873 116.705C632.394 106.65 634.932 96.5992 637.474 86.5495C638.681 81.7661 639.882 76.9812 641.077 72.1947C642.742 65.5277 644.432 58.867 646.127 52.2075C646.849 49.2812 646.849 49.2812 647.587 46.2958C652.315 27.9187 657.517 14.6351 673.549 3.81729C687.603 -0.865316 702.507 0.521178 717.216 0.459592Z" fill="white"/>
<path d="M1773.79 1.46375C1852.65 1.46375 1931.51 1.46375 2012.77 1.46375C2012.77 62.1315 2012.77 62.1315 1999.23 77.3332C1987.48 84.0911 1976.89 83.0577 1963.6 82.5699C1961.1 82.5215 1958.59 82.4731 1956.02 82.4232C1949.87 82.2973 1943.73 82.1213 1937.58 81.8996C1937.6 84.2092 1937.62 86.5188 1937.64 88.8985C1937.8 110.712 1937.92 132.526 1938 154.34C1938.04 165.554 1938.1 176.767 1938.19 187.98C1938.28 198.811 1938.33 209.641 1938.35 220.472C1938.36 224.595 1938.39 228.718 1938.44 232.841C1938.49 238.635 1938.5 244.428 1938.5 250.224C1938.52 253.516 1938.53 256.809 1938.55 260.201C1937.1 274.267 1933.31 284.765 1922.81 294.719C1898.8 310.306 1880.45 301.757 1846.29 301.757C1846.29 229.204 1846.29 156.651 1846.29 81.8996C1822.36 81.8996 1798.44 81.8996 1773.79 81.8996C1773.79 55.3557 1773.79 28.8119 1773.79 1.46375Z" fill="white"/>
<path d="M1651.65 0.270395C1655.78 0.296323 1655.78 0.296323 1660.01 0.322775C1662.85 0.367718 1665.7 0.41266 1668.64 0.458964C1671.54 0.483164 1674.44 0.507363 1677.43 0.532296C1684.57 0.595329 1691.71 0.683448 1698.85 0.794197C1699.16 36.8819 1699.4 72.9694 1699.55 109.058C1699.62 125.816 1699.71 142.572 1699.87 159.329C1700.01 175.501 1700.1 191.672 1700.13 207.845C1700.16 214.014 1700.2 220.184 1700.28 226.353C1700.37 234.996 1700.39 243.635 1700.38 252.278C1700.43 254.828 1700.48 257.379 1700.53 260.006C1700.44 271.493 1700.06 279.83 1692.85 289.133C1681.44 299.275 1672.09 301.855 1656.94 301.687C1654.18 301.67 1651.42 301.653 1648.58 301.635C1644.31 301.567 1644.31 301.567 1639.95 301.499C1637.05 301.474 1634.15 301.45 1631.16 301.425C1624.02 301.362 1616.88 301.274 1609.74 301.163C1609.43 265.076 1609.19 228.988 1609.04 192.899C1608.97 176.142 1608.87 159.385 1608.72 142.628C1608.57 126.456 1608.49 110.285 1608.46 94.113C1608.43 87.9432 1608.38 81.7736 1608.31 75.6042C1608.21 66.9615 1608.2 58.3225 1608.21 49.6793C1608.16 47.1291 1608.11 44.5789 1608.06 41.9515C1608.15 30.4641 1608.53 22.1271 1615.74 12.8244C1627.15 2.68296 1636.5 0.102294 1651.65 0.270395Z" fill="white"/>
<path d="M1620.21 405.962C1629.79 410.504 1629.79 410.504 1636.34 416.727C1638.34 418.615 1640.34 420.502 1642.39 422.446C1653.68 441.018 1654.49 463.13 1649.79 484.01C1644.82 498.287 1638.54 507.996 1625.59 516.306C1611.15 521.124 1593.96 521.701 1579.34 517.158C1566.87 510.618 1558.55 500.705 1554.11 487.343C1550.24 466.419 1549.71 443.217 1561.06 424.801C1578.45 404.716 1594.43 403.359 1620.21 405.962ZM1588.79 428.502C1579.08 439.534 1579.38 445.843 1579.21 460.461C1579.14 463.972 1579.07 467.483 1579 471.1C1579.94 481.948 1582.14 488.33 1587.95 497.467C1595.47 502.145 1595.47 502.145 1604.08 502.85C1613.66 498.707 1617.06 495.468 1622.9 486.702C1626.31 468.111 1627.16 450.575 1620.21 432.875C1614.23 425.931 1614.23 425.931 1606.77 422.11C1595.75 420.922 1595.75 420.922 1588.79 428.502Z" fill="white"/>
<path d="M1164.51 406.175C1173.35 406.175 1182.18 406.175 1191.28 406.175C1191.35 408.752 1191.41 411.328 1191.48 413.983C1191.74 423.528 1192 433.072 1192.28 442.617C1192.39 446.75 1192.5 450.884 1192.61 455.018C1192.77 460.954 1192.94 466.89 1193.11 472.826C1193.15 474.679 1193.2 476.532 1193.25 478.442C1193.44 488.321 1193.44 488.321 1196.63 497.534C1205.42 500.089 1209.21 500.493 1218.05 497.534C1221.99 489.623 1221.36 481.512 1221.57 472.826C1221.63 470.925 1221.68 469.024 1221.74 467.066C1221.91 460.988 1222.07 454.91 1222.23 448.832C1222.35 444.714 1222.46 440.596 1222.58 436.478C1222.87 426.377 1223.14 416.276 1223.4 406.175C1232.23 406.175 1241.07 406.175 1250.17 406.175C1250.43 418.076 1250.63 429.975 1250.76 441.879C1250.81 445.921 1250.88 449.963 1250.98 454.004C1251.11 459.842 1251.17 465.676 1251.21 471.514C1251.27 475.018 1251.33 478.522 1251.38 482.132C1249.88 494.577 1246.44 500.649 1239.46 510.969C1225.42 521.895 1208.26 521.041 1191.28 519.031C1182.88 516.546 1179.56 514.123 1172.54 508.282C1165.5 494.75 1163.54 484.895 1163.73 469.415C1163.74 467.593 1163.75 465.77 1163.76 463.893C1163.81 458.144 1163.91 452.397 1164.01 446.649C1164.05 442.721 1164.09 438.794 1164.12 434.867C1164.21 425.302 1164.35 415.739 1164.51 406.175Z" fill="white"/>
<path d="M1317.43 408.577C1368.39 408.577 1368.39 408.577 1389.85 419.406C1404.68 434.763 1404.07 449.475 1403.82 470.126C1402.95 483.956 1401.04 495.079 1390.78 504.845C1366.7 522.985 1353.25 516.869 1317.43 516.869C1317.43 481.132 1317.43 445.396 1317.43 408.577ZM1341.57 424.821C1341.57 449.836 1341.57 474.852 1341.57 500.625C1361.59 500.007 1361.59 500.007 1369.57 492.672C1380.28 478.394 1377.76 460.968 1376.44 443.772C1374.2 435.07 1372.81 433.643 1365.71 427.528C1357.75 426.635 1349.78 425.741 1341.57 424.821Z" fill="white"/>
<path d="M957.355 406.387C964.943 409.184 969.571 412.181 976.055 417.162C970.765 425.163 970.765 425.163 965.369 433.325C963.551 432.492 961.732 431.658 959.859 430.799C950.958 427.553 942.723 426.139 933.311 425.244C930.666 426.577 930.666 426.577 927.968 427.937C927.968 432.382 927.968 436.827 927.968 441.406C930.544 442.448 933.12 443.49 935.774 444.563C939.183 445.979 942.592 447.396 946.001 448.814C947.695 449.495 949.389 450.175 951.135 450.876C961.466 455.217 969.151 459.367 976.055 468.344C979.918 480.05 979.588 490.12 975.554 501.679C968.784 511.567 963.261 515.744 952.012 519.525C930.343 521.349 914.474 520.495 895.91 508.75C895.91 500.669 895.91 500.669 899.25 495.955C900.792 494.844 902.335 493.733 903.925 492.588C908.902 493.535 908.902 493.535 914.611 495.282C931.777 500.46 931.777 500.46 949.34 497.975C949.34 492.642 949.34 487.308 949.34 481.813C946.254 480.257 943.169 478.701 939.99 477.099C937.082 475.614 937.082 475.614 934.115 474.1C930.139 472.119 926.125 470.212 922.072 468.396C913.398 464.421 907.554 461.38 901.253 454.033C896.815 442.006 896.694 432.346 901.754 420.53C916.251 402.383 936.033 404.045 957.355 406.387Z" fill="white"/>
<path d="M1028.01 408.577C1055.36 408.577 1082.7 408.577 1110.88 408.577C1110.88 413.927 1110.88 419.277 1110.88 424.789C1101.17 424.789 1091.47 424.789 1081.47 424.789C1081.47 455.107 1081.47 485.424 1081.47 516.66C1073.53 516.66 1065.59 516.66 1057.42 516.66C1057.42 486.343 1057.42 456.025 1057.42 424.789C1047.71 424.789 1038.01 424.789 1028.01 424.789C1028.01 419.439 1028.01 414.089 1028.01 408.577Z" fill="white"/>
<path d="M1465.15 406.175C1473.07 406.175 1481 406.175 1489.17 406.175C1489.17 442.635 1489.17 479.095 1489.17 516.66C1481.24 516.66 1473.31 516.66 1465.15 516.66C1465.15 480.2 1465.15 443.74 1465.15 406.175Z" fill="white"/>
</svg>
